<svg xmlns="http://www.w3.org/2000/svg" viewBox="0 0 80 80"><path d="M40.01367,9.25A30.75,30.75,0,1,0,70.76367,40,30.78457,30.78457,0,0,0,40.01367,9.25Zm0,60A29.25,29.25,0,1,1,69.26367,40,29.28293,29.28293,0,0,1,40.01367,69.25Z"/><path d="M40.01367,21.25A10.8671,10.8671,0,0,0,29.15918,32.10547h1.5a9.355,9.355,0,1,1,18.71,0c0,3.79346-2.80176,5.85889-5.51074,7.85644-2.36328,1.74219-4.59473,3.38819-4.59473,6.03272l-.01367,2,1.5.01074L40.76367,46c0-1.89258,1.84668-3.25391,3.98535-4.83057,2.86817-2.11523,6.12012-4.51318,6.12012-9.064A10.86793,10.86793,0,0,0,40.01367,21.25Z"/><path d="M40.01367,53.25a2.75,2.75,0,1,0,2.75,2.75A2.7528,2.7528,0,0,0,40.01367,53.25Zm0,4a1.25,1.25,0,1,1,1.25-1.25A1.25116,1.25116,0,0,1,40.01367,57.25Z"/></svg>