<?xml version="1.0" standalone="no"?>
<!DOCTYPE svg PUBLIC "-//W3C//DTD SVG 20010904//EN"
 "http://www.w3.org/TR/2001/REC-SVG-20010904/DTD/svg10.dtd">
<svg version="1.0" xmlns="http://www.w3.org/2000/svg"
 width="896.000000pt" height="896.000000pt" viewBox="0 0 896.000000 896.000000"
 preserveAspectRatio="xMidYMid meet">
<metadata>
Created by potrace 1.14, written by Peter Selinger 2001-2017
</metadata>
<g transform="translate(0.000000,896.000000) scale(0.100000,-0.100000)"
fill="#000000" stroke="none">
<path d="M3048 5979 c-75 -39 -72 -2 -73 -769 0 -377 3 -698 8 -715 5 -16 25
-43 45 -58 43 -33 100 -35 145 -4 60 41 58 11 55 779 -3 685 -4 704 -23 730
-36 49 -103 65 -157 37z"/>
<path d="M5825 5987 c-33 -11 -42 -19 -68 -59 -16 -25 -17 -80 -17 -725 0
-675 1 -699 20 -730 50 -83 166 -83 216 1 17 29 18 69 18 726 0 623 -2 698
-17 726 -29 56 -92 81 -152 61z"/>
<path d="M3775 5520 c-42 -9 -70 -29 -90 -63 -16 -27 -18 -64 -19 -353 -1
-178 2 -336 6 -352 11 -42 59 -83 105 -89 48 -6 93 14 123 57 21 30 22 38 22
358 1 180 -3 339 -7 352 -10 33 -54 80 -75 80 -9 0 -20 4 -25 8 -6 5 -23 6
-40 2z"/>
<path d="M2355 5508 c-68 -39 -69 -46 -70 -412 0 -296 1 -334 17 -365 43 -87
159 -94 216 -13 19 26 20 45 21 364 2 294 0 340 -15 371 -27 56 -116 85 -169
55z"/>
<path d="M5105 5498 c-54 -42 -55 -50 -55 -411 0 -331 0 -334 23 -368 41 -62
101 -75 168 -37 62 34 63 43 62 413 0 299 -2 335 -18 362 -24 41 -52 57 -107
59 -35 2 -54 -3 -73 -18z"/>
<path d="M6493 5501 c-62 -39 -63 -45 -63 -413 0 -316 1 -335 20 -366 21 -34
71 -62 111 -62 38 0 85 30 106 68 18 35 19 55 18 367 -1 347 -2 355 -48 399
-29 29 -104 32 -144 7z"/>
<path d="M1683 5169 c-30 -9 -82 -58 -84 -82 -1 -7 -3 -82 -4 -167 -1 -131 1
-161 16 -191 39 -79 154 -91 209 -22 23 30 24 37 27 208 2 146 0 162 -19 197
-28 50 -88 73 -145 57z"/>
<path d="M4460 5173 c-38 -11 -62 -29 -81 -60 -18 -29 -21 -50 -22 -175 -1
-175 5 -206 44 -244 26 -25 38 -29 85 -29 51 0 58 3 90 37 38 42 36 29 35 260
0 126 -10 162 -53 190 -26 17 -76 28 -98 21z"/>
<path d="M7192 5159 c-45 -22 -71 -72 -68 -129 1 -19 -2 -45 -6 -56 -4 -12 -4
-25 -1 -28 3 -3 7 -49 7 -103 2 -109 11 -134 59 -163 39 -24 78 -25 122 -4 63
30 69 49 70 237 0 144 -2 173 -17 197 -37 61 -102 80 -166 49z"/>
<path d="M2520 3974 c-52 -12 -121 -40 -165 -67 -11 -7 -50 -42 -86 -78 -64
-63 -123 -160 -134 -220 -18 -96 -21 -118 -20 -149 1 -19 4 -51 8 -70 4 -19 9
-46 12 -60 12 -66 73 -170 137 -233 65 -66 169 -120 278 -144 18 -4 176 -4
205 1 69 9 125 29 126 44 3 54 1 244 -3 247 -3 3 -19 -2 -36 -10 -43 -22 -66
-26 -158 -30 -70 -3 -89 0 -135 21 -100 47 -160 143 -155 251 7 154 130 263
292 257 60 -2 156 -27 182 -47 14 -11 13 -20 15 132 1 63 -2 120 -8 127 -24
33 -258 52 -355 28z"/>
<path d="M4100 3980 c-19 -4 -46 -12 -60 -17 -14 -6 -28 -11 -33 -12 -35 -4
-153 -108 -158 -138 -1 -5 -3 -12 -5 -18 -26 -76 -24 -187 5 -242 35 -67 127
-144 188 -158 10 -2 52 -16 92 -31 79 -29 120 -64 121 -101 0 -26 -35 -66 -70
-80 -37 -15 -155 -16 -235 -2 -130 22 -119 30 -120 -89 -1 -56 2 -106 5 -111
3 -5 25 -12 50 -15 25 -3 56 -8 70 -11 35 -7 219 -7 255 0 89 17 187 65 234
116 12 13 33 47 47 76 51 109 30 244 -53 333 -46 51 -70 64 -196 106 -102 33
-147 63 -147 96 0 58 60 90 164 87 63 -2 139 -12 176 -24 13 -4 15 11 15 104
l0 110 -65 11 c-81 14 -234 20 -280 10z"/>
<path d="M5160 3974 c-237 -60 -408 -283 -399 -521 4 -89 53 -250 81 -261 4
-2 8 -8 8 -14 0 -10 8 -20 68 -81 88 -90 225 -148 352 -149 88 0 159 8 215 25
l40 12 1 133 c1 118 -1 132 -15 126 -120 -50 -258 -55 -332 -11 -58 34 -94 72
-119 129 -57 130 -1 282 128 344 48 23 69 28 133 27 48 -1 97 -9 135 -22 32
-12 61 -21 64 -21 4 0 6 58 7 129 l0 130 -26 10 c-75 28 -257 36 -341 15z"/>
<path d="M6191 3970 c-194 -54 -340 -205 -384 -398 -12 -51 -14 -183 -4 -222
2 -8 7 -28 12 -45 15 -59 77 -163 127 -215 110 -112 240 -165 393 -161 56 2
110 7 110 11 0 2 21 7 45 12 50 11 143 70 206 133 142 141 188 314 139 530
-12 56 -78 167 -131 218 -52 52 -144 114 -180 122 -10 2 -35 9 -54 16 -58 19
-207 19 -279 -1z m215 -251 c16 -7 32 -12 35 -11 15 3 99 -87 119 -127 31 -61
31 -159 1 -222 -66 -139 -233 -195 -363 -122 -190 107 -185 364 9 468 49 25
152 33 199 14z"/>
<path d="M3230 3467 l0 -503 123 0 c67 1 124 4 127 7 3 4 5 229 5 501 l-1 493
-127 3 -127 3 0 -504z"/>
</g>
</svg>
