<svg xmlns="http://www.w3.org/2000/svg" width="336" height="190" viewBox="0 0 336 190" fill="none">
    <path d="M154.847 82.1478L154.847 81.899C154.846 80.9231 154.947 79.9499 155.148 78.995L155.149 78.995C155.814 75.8553 157.535 73.0396 160.025 71.0192C162.514 68.9988 165.621 67.8962 168.825 67.8962L229.511 67.8962C233.219 67.8962 236.774 69.3715 239.395 71.9975C242.016 74.6235 243.489 78.1852 243.489 81.899L243.489 82.1478C243.489 85.8616 242.016 89.4233 239.395 92.0493C236.774 94.6753 233.219 96.1506 229.511 96.1506L168.825 96.1506C165.117 96.1506 161.562 94.6754 158.941 92.0493C156.319 89.4233 154.847 85.8616 154.847 82.1478Z" fill="white" stroke="#0B2750" stroke-width="2" stroke-linecap="round" stroke-linejoin="round"/>
    <path d="M121.608 68.3272L121.608 67.4649C121.608 66.0639 121.883 64.6766 122.418 63.3822C122.953 62.0877 123.738 60.9116 124.727 59.9208C125.715 58.9301 126.889 58.1441 128.181 57.6079C129.473 57.0716 130.858 56.7956 132.257 56.7954L181.467 56.7954C184.292 56.7956 187.001 57.9198 188.998 59.9207C190.996 61.9215 192.118 64.6352 192.118 67.4649L192.118 67.896L168.825 67.896C165.621 67.8961 162.514 68.9986 160.025 71.019C157.535 73.0394 155.814 75.8552 155.149 78.9949L132.257 78.9949C130.858 78.9949 129.474 78.7191 128.182 78.183C126.89 77.6469 125.716 76.8611 124.727 75.8705C123.738 74.8799 122.954 73.7039 122.419 72.4096C121.883 71.1153 121.608 69.7281 121.608 68.3272Z" fill="white" stroke="#0B2750" stroke-width="2" stroke-linecap="round" stroke-linejoin="round"/>
    <path d="M98.3864 132.479L126.697 132.479C130.005 132.479 132.687 129.792 132.687 126.478L132.687 126.37C132.687 123.056 130.005 120.369 126.697 120.369L98.3864 120.369C95.0783 120.369 92.3965 123.056 92.3965 126.37L92.3965 126.478C92.3965 129.792 95.0783 132.479 98.3864 132.479Z" fill="white" stroke="#0B2750" stroke-width="2" stroke-linecap="round" stroke-linejoin="round"/>
    <path d="M152.329 102.205C144.819 102.205 138.731 108.304 138.731 115.828C138.731 123.352 144.819 129.451 152.329 129.451C159.84 129.451 165.928 123.352 165.928 115.828C165.928 108.304 159.84 102.205 152.329 102.205Z" fill="#0B2750"/>
    <path d="M191.706 65.2084L169.314 68.0125L192.406 68.0125L191.706 65.2084Z" fill="#0B2750"/>
</svg>