<svg xmlns="http://www.w3.org/2000/svg" width="149" height="190" viewBox="0 0 149 190" fill="none">
    <path d="M-32.1531 82.1478L-32.1531 81.899C-32.1539 80.9231 -32.0531 79.9499 -31.8522 78.995L-31.8505 78.995C-31.1857 75.8553 -29.4646 73.0396 -26.9752 71.0192C-24.4858 68.9988 -21.3792 67.8962 -18.1754 67.8962L42.5115 67.8962C46.2186 67.8962 49.7739 69.3715 52.3953 71.9975C55.0166 74.6235 56.4893 78.1852 56.4893 81.899L56.4893 82.1478C56.4893 85.8616 55.0166 89.4233 52.3953 92.0493C49.7739 94.6753 46.2186 96.1506 42.5115 96.1506L-18.1754 96.1506C-21.8825 96.1506 -25.4378 94.6754 -28.0591 92.0493C-30.6805 89.4233 -32.1531 85.8616 -32.1531 82.1478Z" fill="white" stroke="#0B2750" stroke-width="2" stroke-linecap="round" stroke-linejoin="round"/>
    <path d="M-65.3919 68.3272L-65.3919 67.4649C-65.392 66.0639 -65.1166 64.6766 -64.5815 63.3822C-64.0465 62.0877 -63.2621 60.9116 -62.2733 59.9208C-61.2845 58.9301 -60.1106 58.1441 -58.8186 57.6079C-57.5266 57.0716 -56.1417 56.7956 -54.7432 56.7954L-5.53246 56.7954C-2.70786 56.7956 0.000993794 57.9198 1.99829 59.9207C3.99558 61.9215 5.11773 64.6352 5.11792 67.4649L5.11792 67.896L-18.1754 67.896C-21.3793 67.8961 -24.4858 68.9986 -26.9752 71.019C-29.4646 73.0394 -31.1857 75.8552 -31.8505 78.9949L-54.7432 78.9949C-56.1417 78.9949 -57.5264 78.7191 -58.8184 78.183C-60.1104 77.6469 -61.2843 76.8611 -62.2731 75.8705C-63.2619 74.8799 -64.0463 73.7039 -64.5814 72.4096C-65.1165 71.1153 -65.3919 69.7281 -65.3919 68.3272Z" fill="white" stroke="#0B2750" stroke-width="2" stroke-linecap="round" stroke-linejoin="round"/>
    <path d="M4.70649 65.2084L-17.6859 68.0125L5.40625 68.0125L4.70649 65.2084Z" fill="#0B2750"/>
</svg>