<svg xmlns="http://www.w3.org/2000/svg" width="127" height="190" viewBox="0 0 127 190" fill="none">
    <path d="M121.608 68.3272L121.608 67.4649C121.608 66.0639 121.883 64.6766 122.418 63.3822C122.953 62.0877 123.738 60.9116 124.726 59.9208C125.715 58.9301 126.889 58.1441 128.181 57.6079C129.473 57.0716 130.858 56.7956 132.257 56.7954L181.467 56.7954C184.292 56.7956 187.001 57.9198 188.998 59.9207C190.995 61.9215 192.117 64.6352 192.118 67.4649L192.118 67.896L168.824 67.896C165.621 67.8961 162.514 68.9986 160.025 71.019C157.535 73.0394 155.814 75.8552 155.149 78.9949L132.257 78.9949C130.858 78.9949 129.473 78.7191 128.181 78.183C126.889 77.6469 125.715 76.8611 124.727 75.8705C123.738 74.8799 122.953 73.7039 122.418 72.4096C121.883 71.1153 121.608 69.7281 121.608 68.3272Z" fill="white" stroke="#0B2750" stroke-width="2" stroke-linecap="round" stroke-linejoin="round"/>
    <path d="M98.3864 132.479L126.697 132.479C130.005 132.479 132.687 129.792 132.687 126.478L132.687 126.37C132.687 123.056 130.005 120.369 126.697 120.369L98.3864 120.369C95.0783 120.369 92.3965 123.056 92.3965 126.37L92.3965 126.478C92.3965 129.792 95.0783 132.479 98.3864 132.479Z" fill="white" stroke="#0B2750" stroke-width="2" stroke-linecap="round" stroke-linejoin="round"/>
</svg>