<svg width="45" height="45" viewBox="0 0 45 45" fill="none" xmlns="http://www.w3.org/2000/svg">
<path d="M27.9813 17.6499H11.8813V18.5124H27.9813V17.6499Z" fill="black"/>
<path d="M27.9813 21.1001H11.8813V21.9626H27.9813V21.1001Z" fill="black"/>
<path d="M27.9813 24.5498H11.8813V25.4123H27.9813V24.5498Z" fill="black"/>
<path d="M23.3813 28H11.8813V28.8625H23.3813V28Z" fill="black"/>
<path d="M32.0062 40.3624C33.115 40.3624 34.1989 40.0336 35.1208 39.4176C36.0428 38.8016 36.7613 37.926 37.1857 36.9016C37.61 35.8772 37.721 34.7499 37.5047 33.6624C37.2884 32.5749 36.7544 31.576 35.9704 30.7919C35.1863 30.0079 34.1874 29.4739 33.0999 29.2576C32.0124 29.0413 30.8851 29.1523 29.8607 29.5767C28.8363 30.001 27.9607 30.7195 27.3447 31.6415C26.7287 32.5634 26.3999 33.6473 26.3999 34.7562C26.4016 36.2425 26.9928 37.6675 28.0438 38.7185C29.0948 39.7695 30.5198 40.3607 32.0062 40.3624ZM32.0062 30.0124C32.9444 30.0124 33.8615 30.2906 34.6416 30.8119C35.4217 31.3331 36.0298 32.074 36.3888 32.9408C36.7479 33.8076 36.8418 34.7614 36.6588 35.6816C36.4757 36.6018 36.0239 37.4471 35.3605 38.1105C34.6971 38.7739 33.8518 39.2257 32.9316 39.4088C32.0114 39.5918 31.0576 39.4979 30.1908 39.1388C29.324 38.7798 28.5831 38.1717 28.0619 37.3916C27.5406 36.6115 27.2624 35.6944 27.2624 34.7562C27.2639 33.4985 27.7641 32.2927 28.6534 31.4034C29.5427 30.5141 30.7485 30.0139 32.0062 30.0124Z" fill="black"/>
<path d="M31.4313 36.9122C31.4879 36.9123 31.544 36.9012 31.5963 36.8795C31.6487 36.8578 31.6962 36.826 31.7362 36.7859L35.1862 33.3359L34.5764 32.7261L31.4313 35.8712L30.0112 34.4511L29.4014 35.0609L31.1264 36.7859C31.1663 36.826 31.2139 36.8578 31.2662 36.8795C31.3185 36.9012 31.3746 36.9123 31.4313 36.9122Z" fill="black"/>
<path d="M31.8625 27.2812V13.4812C31.8625 13.3669 31.817 13.2572 31.7362 13.1763L23.6862 5.12634C23.6461 5.08628 23.5986 5.0545 23.5463 5.03282C23.494 5.01114 23.4379 4.99999 23.3812 5H8.43125C8.31688 5.00003 8.20721 5.04548 8.12634 5.12634C8.04548 5.20721 8.00003 5.31688 8 5.43125V39.9312C8.00003 40.0456 8.04548 40.1553 8.12634 40.2362C8.20721 40.317 8.31688 40.3625 8.43125 40.3625H25.6812V39.5H8.8625V5.8625H22.95V13.4812C22.95 13.5956 22.9955 13.7053 23.0763 13.7862C23.1572 13.867 23.2669 13.9125 23.3812 13.9125H31V27.2812H31.8625ZM23.8125 13.05V6.47232L30.3902 13.05H23.8125Z" fill="black"/>
</svg>
