<svg width="45" height="45" viewBox="0 0 45 45" fill="none" xmlns="http://www.w3.org/2000/svg">
<path d="M28.544 5.3132C28.4954 5.24783 28.4322 5.19473 28.3594 5.15815C28.2866 5.12158 28.2063 5.10253 28.1248 5.10254H16.8748C16.7652 5.10254 16.6583 5.13706 16.5694 5.20119C16.4805 5.26533 16.414 5.35583 16.3794 5.45987L10.7544 22.3349C10.7282 22.4134 10.721 22.497 10.7335 22.5788C10.746 22.6606 10.7777 22.7383 10.8261 22.8054C10.8745 22.8726 10.9382 22.9273 11.0118 22.965C11.0855 23.0027 11.1671 23.0223 11.2498 23.0223H19.6126L16.3626 39.2725C16.3394 39.3886 16.3563 39.5091 16.4105 39.6143C16.4647 39.7195 16.5531 39.8032 16.6611 39.8516C16.7691 39.9001 16.8904 39.9104 17.005 39.8808C17.1197 39.8513 17.2209 39.7837 17.2921 39.6891L34.1671 17.2921C34.2252 17.215 34.2608 17.1232 34.2699 17.0271C34.279 16.9309 34.2613 16.8341 34.2187 16.7474C34.176 16.6607 34.1102 16.5876 34.0285 16.536C33.9468 16.4845 33.8525 16.4566 33.7559 16.4555L25.4494 16.3605L28.6253 5.77518C28.6486 5.69716 28.6534 5.61477 28.6393 5.53457C28.6252 5.45436 28.5926 5.37856 28.544 5.3132ZM24.2494 16.7247C24.2262 16.8022 24.2213 16.8841 24.2351 16.9638C24.2489 17.0436 24.281 17.1191 24.3289 17.1843C24.3769 17.2495 24.4393 17.3027 24.5113 17.3397C24.5833 17.3766 24.6629 17.3964 24.7438 17.3973L32.7111 17.4885L17.8364 37.2307L20.7621 22.6024C20.7773 22.5266 20.7754 22.4484 20.7567 22.3734C20.738 22.2984 20.7029 22.2285 20.6539 22.1687C20.6049 22.1089 20.5432 22.0608 20.4733 22.0277C20.4035 21.9947 20.3271 21.9775 20.2498 21.9775H11.9747L17.2514 6.14734H27.4228L24.2494 16.7247Z" fill="black"/>
</svg>
