<svg width="50" height="50" viewBox="0 0 50 50" fill="none" xmlns="http://www.w3.org/2000/svg">
<g clip-path="url(#clip0_1580_847)">
<path d="M10.3119 32.1883C13.1552 35.0293 16.9932 36.6512 21.0122 36.7099C25.0311 36.7687 28.9149 35.2596 31.84 32.5029L43.4186 44.0816L44.0815 43.4187L32.5028 31.8401C34.5836 29.6267 35.9663 26.8494 36.4781 23.855C36.9899 20.8606 36.6082 17.7817 35.3807 15.0029C34.1531 12.2241 32.1342 9.86848 29.5759 8.23026C27.0176 6.59203 24.0334 5.74379 20.9959 5.79145C17.9584 5.83912 15.0023 6.78058 12.4966 8.49826C9.99101 10.2159 8.04694 12.6337 6.9072 15.4497C5.76746 18.2656 5.48256 21.355 6.08808 24.3319C6.6936 27.3088 8.16271 30.0413 10.3119 32.1883ZM10.9748 10.9749C13.007 8.94264 15.5963 7.55865 18.4151 6.99795C21.2339 6.43725 24.1557 6.72503 26.811 7.82487C29.4663 8.92472 31.7358 10.7873 33.3325 13.1769C34.9292 15.5666 35.7815 18.3761 35.7815 21.2502C35.7815 24.1242 34.9292 26.9337 33.3325 29.3234C31.7358 31.7131 29.4663 33.5756 26.811 34.6754C24.1557 35.7753 21.2339 36.0631 18.4151 35.5024C15.5963 34.9417 13.007 33.5577 10.9748 31.5254C9.62001 30.1791 8.54486 28.5781 7.81119 26.8147C7.07751 25.0513 6.69981 23.1601 6.69981 21.2502C6.69981 19.3402 7.07752 17.4491 7.81119 15.6856C8.54487 13.9222 9.62001 12.3212 10.9748 10.9749Z" fill="url(#paint0_linear_1580_847)"/>
</g>
<defs>
<linearGradient id="paint0_linear_1580_847" x1="24.9297" y1="5.78955" x2="24.9297" y2="44.0816" gradientUnits="userSpaceOnUse">
<stop stop-color="#00BCEB"/>
<stop offset="0.445546" stop-color="#1482DB"/>
<stop offset="1" stop-color="#0169C2"/>
</linearGradient>
<clipPath id="clip0_1580_847">
<rect width="50" height="50" fill="white"/>
</clipPath>
</defs>
</svg>
