<svg width="45" height="45" viewBox="0 0 45 45" fill="none" xmlns="http://www.w3.org/2000/svg">
<g clip-path="url(#clip0_1844_932)">
<path d="M19.125 27.422C19.1904 27.4219 19.2549 27.4067 19.3134 27.3775L28.3134 22.8775C28.3836 22.8425 28.4426 22.7886 28.4838 22.722C28.5251 22.6553 28.5469 22.5785 28.5469 22.5001C28.5469 22.4217 28.5251 22.3449 28.4838 22.2782C28.4426 22.2115 28.3836 22.1577 28.3134 22.1227L19.3134 17.6227C19.2491 17.5905 19.1777 17.5753 19.1058 17.5785C19.034 17.5818 18.9642 17.6033 18.903 17.6411C18.8418 17.679 18.7914 17.7318 18.7564 17.7946C18.7214 17.8574 18.7031 17.9282 18.7031 18.0001V27.0001C18.7031 27.0555 18.7139 27.1104 18.7351 27.1616C18.7563 27.2128 18.7874 27.2593 18.8266 27.2985C18.8658 27.3377 18.9123 27.3688 18.9635 27.39C19.0147 27.4111 19.0696 27.422 19.125 27.422ZM19.5469 18.6826L27.1818 22.5001L19.5469 26.3176V18.6826Z" fill="black"/>
<path d="M5.625 37.5469H39.375C39.4869 37.5468 39.5942 37.5024 39.6733 37.4233C39.7524 37.3442 39.7968 37.2369 39.7969 37.125V7.875C39.7968 7.76312 39.7524 7.65583 39.6733 7.57672C39.5942 7.49761 39.4869 7.45315 39.375 7.45312H5.625C5.51312 7.45315 5.40583 7.49761 5.32672 7.57672C5.24761 7.65583 5.20315 7.76312 5.20312 7.875V37.125C5.20315 37.2369 5.24761 37.3442 5.32672 37.4233C5.40583 37.5024 5.51312 37.5468 5.625 37.5469ZM18.7031 36.7031H12.7969V33.0469H18.7031V36.7031ZM25.4531 36.7031H19.5469V33.0469H25.4531V36.7031ZM32.2031 36.7031H26.2969V33.0469H32.2031V36.7031ZM38.9531 36.7031H33.0469V33.0469H38.9531V36.7031ZM33.0469 8.29688H38.9531V11.9531H33.0469V8.29688ZM26.2969 8.29688H32.2031V11.9531H26.2969V8.29688ZM19.5469 8.29688H25.4531V11.9531H19.5469V8.29688ZM12.7969 8.29688H18.7031V11.9531H12.7969V8.29688ZM6.04688 8.29688H11.9531V11.9531H6.04688V8.29688ZM6.04688 12.7969H38.9531V32.2031H6.04688V12.7969ZM6.04688 33.0469H11.9531V36.7031H6.04688V33.0469Z" fill="black"/>
</g>
<defs>
<clipPath id="clip0_1844_932">
<rect width="45" height="45" fill="white"/>
</clipPath>
</defs>
</svg>
