<svg
					id="switch-icon"
					xmlns="http://www.w3.org/2000/svg"
					viewBox="0 0 83 80"
					fill="none"
				>
					<path
						d="M59 54.5L64.7929 60.2929C65.1834 60.6834 65.8166 60.6834 66.2071 60.2929L75.5 51"
						stroke="white"
						stroke-width="4"
						stroke-linecap="round"
					/>
					<g style="mix-blend-mode:multiply">
						<path d="M64 39.25H34V40.75H64V39.25Z" fill="black" />
						<path
							d="M10 48.75H70C70.1989 48.7499 70.3896 48.6709 70.5303 48.5303C70.6709 48.3896 70.7499 48.1989 70.75 48V32C70.7499 31.8011 70.6709 31.6104 70.5303 31.4697C70.3896 31.3291 70.1989 31.2501 70 31.25H10C9.8011 31.2501 9.61037 31.3291 9.46973 31.4697C9.32909 31.6104 9.25005 31.8011 9.25 32V48C9.25005 48.1989 9.32909 48.3896 9.46973 48.5303C9.61037 48.6709 9.8011 48.7499 10 48.75ZM10.75 32.75H69.25V47.25H10.75V32.75Z"
							fill="black"
						/>
						<path
							d="M16 41C16.5523 41 17 40.5523 17 40C17 39.4477 16.5523 39 16 39C15.4477 39 15 39.4477 15 40C15 40.5523 15.4477 41 16 41Z"
							fill="black"
						/>
						<path
							d="M22 41C22.5523 41 23 40.5523 23 40C23 39.4477 22.5523 39 22 39C21.4477 39 21 39.4477 21 40C21 40.5523 21.4477 41 22 41Z"
							fill="black"
						/>
						<path
							d="M28 41C28.5523 41 29 40.5523 29 40C29 39.4477 28.5523 39 28 39C27.4477 39 27 39.4477 27 40C27 40.5523 27.4477 41 28 41Z"
							fill="black"
						/>
					</g>
				</svg>