<svg width="1855" height="371" viewBox="0 0 1855 371" fill="none" xmlns="http://www.w3.org/2000/svg">
<g id="Group 195">
<g id="panel-4" clip-path="url(#clip0_1060_850)">
<path id="Vector" d="M1850.16 163.92H1805C1803.57 163.92 1802.42 165.066 1802.42 166.48V206.16C1802.42 207.574 1803.57 208.72 1805 208.72H1850.16C1851.59 208.72 1852.74 207.574 1852.74 206.16V166.48C1852.74 165.066 1851.59 163.92 1850.16 163.92Z" fill="white" stroke="#042750" stroke-linecap="round" stroke-linejoin="round"/>
<path id="Vector_2" d="M1802.42 171.6V166.48C1802.42 165.801 1802.69 165.15 1803.18 164.67C1803.66 164.19 1804.32 163.92 1805 163.92H1850.16C1850.85 163.92 1851.5 164.19 1851.99 164.67C1852.47 165.15 1852.74 165.801 1852.74 166.48V171.6H1802.42Z" fill="#042750" stroke="#042750" stroke-linecap="round" stroke-linejoin="round"/>
<path id="Vector_3" d="M1806.94 170.32C1808 170.32 1808.87 169.46 1808.87 168.4C1808.87 167.34 1808 166.48 1806.94 166.48C1805.87 166.48 1805 167.34 1805 168.4C1805 169.46 1805.87 170.32 1806.94 170.32Z" fill="white" stroke="#042750" stroke-linecap="round" stroke-linejoin="round"/>
<g id="Group">
<path id="Vector_4" d="M1616.22 207.44H1665.38" stroke="#042750" stroke-linecap="round" stroke-linejoin="round"/>
<path id="Vector_5" d="M1654.68 121.68H1644.35C1644 121.68 1643.71 121.966 1643.71 122.32V132.56C1643.71 132.913 1644 133.2 1644.35 133.2H1654.68C1655.03 133.2 1655.32 132.913 1655.32 132.56V122.32C1655.32 121.966 1655.03 121.68 1654.68 121.68Z" fill="#042750"/>
<path id="Vector_6" d="M1636.61 125.52H1608.23C1607.87 125.52 1607.58 125.807 1607.58 126.16V141.52C1607.58 141.873 1607.87 142.16 1608.23 142.16H1636.61C1636.97 142.16 1637.26 141.873 1637.26 141.52V126.16C1637.26 125.807 1636.97 125.52 1636.61 125.52Z" fill="white" stroke="#042750" stroke-linecap="round" stroke-linejoin="round"/>
<path id="Vector_7" d="M1653.39 147.28H1601.77C1601.42 147.28 1601.13 147.567 1601.13 147.92V164.56C1601.13 164.913 1601.42 165.2 1601.77 165.2H1653.39C1653.74 165.2 1654.03 164.913 1654.03 164.56V147.92C1654.03 147.567 1653.74 147.28 1653.39 147.28Z" fill="#042750"/>
<path id="Vector_8" d="M1632.74 175.542H1605.65C1605.29 175.542 1605 175.829 1605 176.182V188.88C1605 189.233 1605.29 189.52 1605.65 189.52H1632.74C1633.1 189.52 1633.39 189.233 1633.39 188.88V176.182C1633.39 175.829 1633.1 175.542 1632.74 175.542Z" fill="white" stroke="#042750" stroke-linecap="round" stroke-linejoin="round"/>
<path id="Vector_9" d="M1658.55 216.4H1622.42C1622.06 216.4 1621.77 216.686 1621.77 217.04V229.84C1621.77 230.193 1622.06 230.48 1622.42 230.48H1658.55C1658.9 230.48 1659.19 230.193 1659.19 229.84V217.04C1659.19 216.686 1658.9 216.4 1658.55 216.4Z" fill="#042750"/>
</g>
<path id="Vector_10" d="M1718.34 200.467C1713.41 210.194 1705.84 218.369 1696.5 224.08C1687.15 229.792 1676.39 232.815 1665.41 232.813C1632.7 232.813 1606.17 206.502 1606.17 174.045C1606.17 141.587 1632.7 115.28 1665.41 115.28C1674.62 115.273 1683.7 117.397 1691.93 121.485C1700.16 125.572 1707.32 131.508 1712.83 138.822" stroke="#042750" stroke-linecap="round" stroke-linejoin="round"/>
<path id="Vector_11" d="M1692.74 229.2C1694.88 229.2 1696.61 227.481 1696.61 225.36C1696.61 223.239 1694.88 221.52 1692.74 221.52C1690.6 221.52 1688.87 223.239 1688.87 225.36C1688.87 227.481 1690.6 229.2 1692.74 229.2Z" fill="white" stroke="#042750" stroke-linecap="round" stroke-linejoin="round"/>
<path id="Vector_12" d="M1716.19 188.24V185.04C1716.19 184.531 1715.98 184.043 1715.62 183.682C1715.26 183.322 1714.76 183.12 1714.25 183.12H1701.18C1700.66 183.12 1700.17 183.322 1699.81 183.682C1699.45 184.043 1699.24 184.531 1699.24 185.04V210.64C1699.24 211.149 1699.45 211.638 1699.81 211.998C1700.17 212.358 1700.66 212.56 1701.18 212.56H1730.81C1731.32 212.56 1731.81 212.358 1732.18 211.998C1732.54 211.638 1732.74 211.149 1732.74 210.64V190.16C1732.74 189.651 1732.54 189.163 1732.18 188.802C1731.81 188.442 1731.32 188.24 1730.81 188.24H1716.19Z" fill="white" stroke="#042750" stroke-linecap="round" stroke-linejoin="round"/>
<path id="Vector_13" d="M1730.81 191.36H1701.13C1700.06 191.36 1699.19 192.22 1699.19 193.28V210.64C1699.19 211.7 1700.06 212.56 1701.13 212.56H1730.81C1731.88 212.56 1732.74 211.7 1732.74 210.64V193.28C1732.74 192.22 1731.88 191.36 1730.81 191.36Z" fill="white" stroke="#042750" stroke-linecap="round" stroke-linejoin="round"/>
<path id="Vector_14" d="M1775.92 193.36H1765.69C1765.31 193.36 1765 193.667 1765 194.045V204.195C1765 204.574 1765.31 204.88 1765.69 204.88H1775.92C1776.3 204.88 1776.61 204.574 1776.61 204.195V194.045C1776.61 193.667 1776.3 193.36 1775.92 193.36Z" fill="white" stroke="#042750" stroke-linecap="round" stroke-linejoin="round"/>
<path id="Vector_15" d="M1786.94 174.16H1751.71" stroke="#042750" stroke-linecap="round" stroke-linejoin="round"/>
<path id="Vector_16" d="M1786.94 178C1789.07 178 1790.81 176.281 1790.81 174.16C1790.81 172.039 1789.07 170.32 1786.94 170.32C1784.8 170.32 1783.06 172.039 1783.06 174.16C1783.06 176.281 1784.8 178 1786.94 178Z" fill="white" stroke="#042750" stroke-linecap="round" stroke-linejoin="round"/>
<path id="Vector_17" d="M1763.06 143.44H1738.55C1738.19 143.44 1737.9 143.726 1737.9 144.08V153.04C1737.9 153.393 1738.19 153.68 1738.55 153.68H1763.06C1763.42 153.68 1763.71 153.393 1763.71 153.04V144.08C1763.71 143.726 1763.42 143.44 1763.06 143.44Z" fill="#042750"/>
<path id="Vector_18" d="M1730.81 157.52H1706.29C1705.93 157.52 1705.65 157.807 1705.65 158.16V167.12C1705.65 167.473 1705.93 167.76 1706.29 167.76H1730.81C1731.16 167.76 1731.45 167.473 1731.45 167.12V158.16C1731.45 157.807 1731.16 157.52 1730.81 157.52Z" fill="white" stroke="#042750" stroke-linecap="round" stroke-linejoin="round"/>
<path id="Vector_19" d="M1686.29 175.171V165.84C1686.29 165.5 1686.2 165.165 1686.03 164.871C1685.85 164.577 1685.6 164.334 1685.3 164.167C1685.01 164 1684.67 163.915 1684.32 163.921C1683.98 163.926 1683.65 164.022 1683.35 164.198L1675.61 168.864C1675.33 169.035 1675.09 169.276 1674.93 169.564C1674.76 169.851 1674.68 170.176 1674.68 170.506C1674.68 170.836 1674.76 171.16 1674.93 171.448C1675.09 171.735 1675.33 171.976 1675.61 172.147L1683.35 176.81C1683.64 176.986 1683.98 177.082 1684.32 177.087C1684.67 177.093 1685 177.008 1685.3 176.841C1685.6 176.675 1685.85 176.432 1686.02 176.139C1686.2 175.845 1686.29 175.511 1686.29 175.171Z" fill="#042750"/>
<path id="Vector_20" d="M1795.97 186.016V195.28C1795.97 195.62 1796.06 195.955 1796.23 196.249C1796.41 196.543 1796.65 196.785 1796.95 196.953C1797.25 197.12 1797.59 197.205 1797.93 197.199C1798.28 197.194 1798.61 197.098 1798.91 196.921L1806.61 192.288C1806.9 192.117 1807.13 191.876 1807.3 191.588C1807.46 191.301 1807.54 190.976 1807.54 190.646C1807.54 190.316 1807.46 189.992 1807.3 189.704C1807.13 189.417 1806.9 189.176 1806.61 189.005L1798.92 184.374C1798.63 184.195 1798.29 184.096 1797.94 184.089C1797.6 184.082 1797.26 184.166 1796.96 184.334C1796.66 184.501 1796.41 184.745 1796.23 185.041C1796.06 185.337 1795.97 185.673 1795.97 186.016V186.016Z" fill="white" stroke="#042750" stroke-linecap="round" stroke-linejoin="round"/>
<path id="Vector_21" d="M1842.42 146C1842.42 138.224 1836.06 131.92 1828.23 131.92C1820.39 131.92 1814.03 138.224 1814.03 146C1814.03 153.776 1820.39 160.08 1828.23 160.08C1836.06 160.08 1842.42 153.776 1842.42 146Z" fill="white" stroke="#042750" stroke-linecap="round" stroke-linejoin="round"/>
<path id="Vector_22" d="M1836.05 141.254L1825.42 151.798L1820.41 146.829" stroke="#042750" stroke-linecap="round" stroke-linejoin="round"/>
<path id="Vector_23" d="M1698.55 131.92H1663.71C1663.35 131.92 1663.06 132.206 1663.06 132.56V144.08C1663.06 144.433 1663.35 144.72 1663.71 144.72H1698.55C1698.9 144.72 1699.19 144.433 1699.19 144.08V132.56C1699.19 132.206 1698.9 131.92 1698.55 131.92Z" fill="white" stroke="#042750" stroke-linecap="round" stroke-linejoin="round"/>
<path id="Vector_24" d="M1648.23 189.52H1639.19C1638.84 189.52 1638.55 189.807 1638.55 190.16V199.12C1638.55 199.473 1638.84 199.76 1639.19 199.76H1648.23C1648.58 199.76 1648.87 199.473 1648.87 199.12V190.16C1648.87 189.807 1648.58 189.52 1648.23 189.52Z" fill="#042750"/>
<path id="Vector_25" d="M1714.03 144.72C1716.53 144.72 1718.55 142.714 1718.55 140.24C1718.55 137.766 1716.53 135.76 1714.03 135.76C1711.54 135.76 1709.52 137.766 1709.52 140.24C1709.52 142.714 1711.54 144.72 1714.03 144.72Z" fill="#042750"/>
<path id="Vector_26" d="M1666.94 211.28C1669.07 211.28 1670.81 209.561 1670.81 207.44C1670.81 205.319 1669.07 203.6 1666.94 203.6C1664.8 203.6 1663.06 205.319 1663.06 207.44C1663.06 209.561 1664.8 211.28 1666.94 211.28Z" fill="white" stroke="#042750" stroke-linecap="round" stroke-linejoin="round"/>
<path id="Vector_27" d="M1830.16 197.2C1830.16 196.493 1829.58 195.92 1828.87 195.92C1828.16 195.92 1827.58 196.493 1827.58 197.2V202.32C1827.58 203.027 1828.16 203.6 1828.87 203.6C1829.58 203.6 1830.16 203.027 1830.16 202.32V197.2Z" fill="white" stroke="#042750" stroke-linecap="round" stroke-linejoin="round"/>
<path id="Vector_28" d="M1830.16 178C1830.16 177.293 1829.58 176.72 1828.87 176.72C1828.16 176.72 1827.58 177.293 1827.58 178V183.12C1827.58 183.827 1828.16 184.4 1828.87 184.4C1829.58 184.4 1830.16 183.827 1830.16 183.12V178Z" fill="#042750" stroke="#042750" stroke-linecap="round" stroke-linejoin="round"/>
<path id="Vector_29" d="M1824.77 196.043C1825.27 195.543 1825.27 194.733 1824.77 194.233C1824.26 193.733 1823.45 193.733 1822.94 194.233L1819.29 197.853C1818.79 198.353 1818.79 199.164 1819.29 199.664C1819.8 200.163 1820.61 200.163 1821.12 199.664L1824.77 196.043Z" fill="#042750" stroke="#042750" stroke-linecap="round" stroke-linejoin="round"/>
<path id="Vector_30" d="M1822.94 186.088C1823.44 186.588 1824.26 186.588 1824.76 186.088C1825.27 185.588 1825.27 184.778 1824.76 184.278L1821.11 180.658C1820.61 180.158 1819.79 180.158 1819.29 180.658C1818.79 181.157 1818.79 181.968 1819.29 182.468L1822.94 186.088Z" fill="#042750" stroke="#042750" stroke-linecap="round" stroke-linejoin="round"/>
<path id="Vector_31" d="M1836.63 199.663C1837.13 200.163 1837.95 200.163 1838.45 199.663C1838.96 199.163 1838.96 198.352 1838.45 197.852L1834.8 194.232C1834.3 193.732 1833.48 193.732 1832.98 194.232C1832.48 194.732 1832.48 195.542 1832.98 196.042L1836.63 199.663Z" fill="white" stroke="#042750" stroke-linecap="round" stroke-linejoin="round"/>
<path id="Vector_32" d="M1821.77 191.44C1822.49 191.44 1823.06 190.867 1823.06 190.16C1823.06 189.453 1822.49 188.88 1821.77 188.88H1816.61C1815.9 188.88 1815.32 189.453 1815.32 190.16C1815.32 190.867 1815.9 191.44 1816.61 191.44H1821.77Z" fill="#042750" stroke="#042750" stroke-linecap="round" stroke-linejoin="round"/>
<path id="Vector_33" d="M1841.13 191.44C1841.84 191.44 1842.42 190.867 1842.42 190.16C1842.42 189.453 1841.84 188.88 1841.13 188.88H1835.97C1835.26 188.88 1834.68 189.453 1834.68 190.16C1834.68 190.867 1835.26 191.44 1835.97 191.44H1841.13Z" fill="white" stroke="#042750" stroke-linecap="round" stroke-linejoin="round"/>
</g>
<g id="panel-2">
<g id="Group 192">
<path id="Vector 15" d="M663.28 173H360" stroke="#1E4471" stroke-width="2"/>
<path id="Vector_34" d="M546.473 183.008C552.69 183.008 557.73 178.305 557.73 172.504C557.73 166.703 552.69 162 546.473 162C540.256 162 535.216 166.703 535.216 172.504C535.216 178.305 540.256 183.008 546.473 183.008Z" fill="white" stroke="#1E4471" stroke-width="2" stroke-miterlimit="10"/>
</g>
<g id="Group 191">
<path id="Vector_35" d="M810.749 130.204L837.271 130.204C840.371 130.204 842.883 127.497 842.883 124.157L842.883 124.047C842.883 120.707 840.371 118 837.271 118L810.749 118C807.65 118 805.137 120.707 805.137 124.047L805.137 124.157C805.137 127.497 807.65 130.204 810.749 130.204Z" fill="white" stroke="#0B2750" stroke-width="2" stroke-linecap="round" stroke-linejoin="round"/>
<path id="Vector_36" d="M793.66 168.904C793.66 165.591 796.151 162.968 799.149 162.968C802.147 162.968 804.637 165.591 804.637 168.904C804.637 172.217 802.147 174.84 799.149 174.84C796.151 174.84 793.66 172.217 793.66 168.904Z" stroke="black"/>
<path id="Vector_37" d="M861.43 135.553C854.394 135.553 848.69 141.7 848.69 149.282C848.69 156.864 854.394 163.01 861.43 163.01C868.466 163.01 874.169 156.864 874.169 149.282C874.169 141.7 868.466 135.553 861.43 135.553Z" fill="#0B2750"/>
<path id="Vector_38" d="M877 216.298H850.868V228H877V216.298Z" fill="#042750" stroke="#042750" stroke-linecap="round" stroke-linejoin="round"/>
<path id="Vector_39" d="M763.258 172.716L763.258 165.02C763.258 164.279 763.441 163.552 763.788 162.912C764.135 162.272 764.634 161.743 765.233 161.378C765.833 161.013 766.511 160.826 767.2 160.836C767.889 160.846 768.563 161.053 769.153 161.434L774.928 165.17L781.055 169.134C781.63 169.506 782.106 170.032 782.436 170.66C782.767 171.289 782.94 171.998 782.94 172.72C782.94 173.442 782.767 174.151 782.436 174.78C782.106 175.408 781.63 175.934 781.055 176.306L774.928 180.27L769.153 184.005C768.563 184.387 767.889 184.594 767.2 184.604C766.511 184.614 765.833 184.427 765.233 184.062C764.634 183.697 764.135 183.168 763.788 182.528C763.441 181.888 763.258 181.161 763.258 180.42L763.258 172.716Z" fill="#0B2750"/>
</g>
<g id="icon_simplify 1">
<path id="Vector_40" d="M720.017 177.771L721.605 179.229L727.593 173.729C727.698 173.634 727.78 173.52 727.837 173.395C727.893 173.27 727.922 173.136 727.922 173C727.922 172.865 727.893 172.731 727.837 172.605C727.78 172.48 727.698 172.367 727.593 172.271L721.605 166.771L720.017 168.229L724.089 171.969H633.977V174.031H724.089L720.017 177.771Z" fill="#1E4471"/>
<path id="Vector_41" d="M729.794 193.969H693.863V196.031H729.794V193.969Z" fill="#1E4471"/>
<path id="Vector_42" d="M717.817 185.031V182.969H681.885C681.588 182.969 681.302 183.077 681.092 183.271C680.881 183.464 680.763 183.727 680.763 184V206C680.763 206.273 680.881 206.536 681.092 206.729C681.302 206.923 681.588 207.031 681.885 207.031H693.863V204.969H683.008V185.031H717.817Z" fill="#1E4471"/>
<path id="Vector_43" d="M716.694 206V217H718.94V207.031H729.794V204.969H717.817C717.519 204.969 717.233 205.077 717.023 205.271C716.812 205.464 716.694 205.727 716.694 206Z" fill="#1E4471"/>
<path id="Vector_44" d="M706.962 206H704.717V217H706.962V206Z" fill="#1E4471"/>
<path id="Vector_45" d="M647.077 206V196.031H669.908C670.206 196.031 670.492 195.923 670.702 195.729C670.913 195.536 671.031 195.273 671.031 195V184H668.785V193.969H645.954C645.656 193.969 645.371 194.077 645.16 194.271C644.95 194.464 644.831 194.727 644.831 195V204.969H633.977V207.031H645.954C646.252 207.031 646.538 206.923 646.748 206.729C646.959 206.536 647.077 206.273 647.077 206V206Z" fill="#1E4471"/>
<path id="Vector_46" d="M657.931 182.969H633.977V185.031H657.931V182.969Z" fill="#1E4471"/>
<path id="Vector_47" d="M671.031 206H668.785V217H671.031V206Z" fill="#1E4471"/>
<path id="Vector_48" d="M659.054 206H656.808V217H659.054V206Z" fill="#1E4471"/>
<path id="Vector_49" d="M647.077 162V152.031H657.931V149.969H645.954C645.656 149.969 645.371 150.077 645.16 150.271C644.95 150.464 644.831 150.727 644.831 151V160.969H633.977V163.031H645.954C646.252 163.031 646.538 162.923 646.748 162.729C646.959 162.536 647.077 162.273 647.077 162V162Z" fill="#1E4471"/>
<path id="Vector_50" d="M647.077 140V129H644.831V138.969H633.977V141.031H645.954C646.252 141.031 646.538 140.923 646.748 140.729C646.959 140.536 647.077 140.273 647.077 140V140Z" fill="#1E4471"/>
<path id="Vector_51" d="M656.808 129V140C656.808 140.273 656.927 140.536 657.137 140.729C657.348 140.923 657.633 141.031 657.931 141.031H668.785V160.969H657.931V163.031H669.908C670.206 163.031 670.492 162.923 670.702 162.729C670.913 162.536 671.031 162.273 671.031 162V140C671.031 139.727 670.913 139.464 670.702 139.271C670.492 139.077 670.206 138.969 669.908 138.969H659.054V129H656.808Z" fill="#1E4471"/>
<path id="Vector_52" d="M680.763 129V151C680.763 151.273 680.881 151.536 681.092 151.729C681.302 151.923 681.588 152.031 681.885 152.031H693.863V149.969H683.008V129H680.763Z" fill="#1E4471"/>
<path id="Vector_53" d="M704.717 151V160.969H681.885V163.031H705.84C706.137 163.031 706.423 162.923 706.633 162.729C706.844 162.536 706.962 162.273 706.962 162V152.031H729.794V149.969H705.84C705.542 149.969 705.256 150.077 705.046 150.271C704.835 150.464 704.717 150.727 704.717 151V151Z" fill="#1E4471"/>
<path id="Vector_54" d="M694.985 129H692.74V140H694.985V129Z" fill="#1E4471"/>
<path id="Vector_55" d="M718.94 140V129H716.694V138.969H705.84V141.031H717.817C718.114 141.031 718.4 140.923 718.611 140.729C718.821 140.536 718.939 140.273 718.94 140V140Z" fill="#1E4471"/>
</g>
</g>
<g id="panel-3">
<g id="illustration_networking_monocolor 1" clip-path="url(#clip1_1060_850)">
<path id="Vector_56" d="M1165.81 215.24C1162.72 207.326 1161.14 198.906 1161.15 190.413C1161.15 152.636 1191.88 122.013 1229.78 122.013C1267.69 122.013 1298.42 152.636 1298.42 190.413C1298.43 198.906 1296.84 207.326 1293.75 215.24" stroke="#042750" stroke-linecap="round" stroke-linejoin="round"/>
<path id="Vector_57" d="M1159.85 159.709L1185.55 152.844V215.24H1159.85V159.709Z" fill="white" stroke="#042750" stroke-linecap="round" stroke-linejoin="round"/>
<path id="Vector_58" d="M1159.85 159.709L1153.02 161.533V215.24H1159.85V159.709Z" fill="#042750" stroke="#042750" stroke-linecap="round" stroke-linejoin="round"/>
<path id="Vector_59" d="M1223.17 215.24H1185.54L1185.55 142.194L1223.17 132.147V215.24Z" stroke="#042750" stroke-linecap="round" stroke-linejoin="round"/>
<path id="Vector_60" d="M1166.23 191.427C1166.23 191.83 1166.4 192.216 1166.68 192.501C1166.97 192.787 1167.36 192.947 1167.76 192.947H1190.13C1190.53 192.947 1190.92 192.787 1191.21 192.501C1191.49 192.216 1191.65 191.83 1191.65 191.427V178.76H1166.23V191.427Z" fill="white" stroke="#042750" stroke-linecap="round" stroke-linejoin="round"/>
<path id="Vector_61" d="M1190.13 174.707H1167.76C1167.36 174.707 1166.97 174.867 1166.68 175.152C1166.4 175.437 1166.23 175.823 1166.23 176.227V178.76H1191.65V176.227C1191.65 175.823 1191.49 175.437 1191.21 175.152C1190.92 174.867 1190.53 174.707 1190.13 174.707V174.707Z" fill="#042750" stroke="#042750" stroke-linecap="round" stroke-linejoin="round"/>
<path id="Vector_62" d="M1169.29 176.733C1169.29 176.174 1168.83 175.72 1168.27 175.72C1167.71 175.72 1167.25 176.174 1167.25 176.733C1167.25 177.293 1167.71 177.747 1168.27 177.747C1168.83 177.747 1169.29 177.293 1169.29 176.733Z" fill="white" stroke="#042750" stroke-linecap="round" stroke-linejoin="round"/>
<path id="Vector_63" d="M1185.55 194.973V192.947H1168.27C1168.27 192.947 1182.5 194.973 1185.55 194.973Z" fill="#042750" stroke="#042750" stroke-linecap="round" stroke-linejoin="round"/>
<path id="Vector_64" d="M1177.93 204.093H1172.84C1172.56 204.093 1172.34 204.32 1172.34 204.6V209.667C1172.34 209.946 1172.56 210.173 1172.84 210.173H1177.93C1178.21 210.173 1178.44 209.946 1178.44 209.667V204.6C1178.44 204.32 1178.21 204.093 1177.93 204.093Z" fill="white" stroke="#042750" stroke-linecap="round" stroke-linejoin="round"/>
<path id="Vector_65" d="M1308.58 180.787V162.547" stroke="#042750" stroke-linecap="round" stroke-linejoin="round"/>
<path id="Vector_66" d="M1274.01 135.693C1274.01 133.735 1272.42 132.147 1270.45 132.147C1268.49 132.147 1266.9 133.735 1266.9 135.693C1266.9 137.652 1268.49 139.24 1270.45 139.24C1272.42 139.24 1274.01 137.652 1274.01 135.693Z" fill="#042750" stroke="#042750" stroke-miterlimit="10"/>
<path id="Vector_67" d="M1308.58 162.547H1284.18V215.24H1308.58V162.547Z" fill="white" stroke="#042750" stroke-linecap="round" stroke-linejoin="round"/>
<path id="Vector_68" d="M1288.25 198.013H1278.08V203.08H1288.25V198.013Z" fill="white" stroke="#042750" stroke-linecap="round" stroke-linejoin="round"/>
<path id="Vector_69" d="M1271.98 180.787H1261.81V185.853H1271.98V180.787Z" fill="white" stroke="#042750" stroke-linecap="round" stroke-linejoin="round"/>
<path id="Vector_70" d="M1246.56 162.547H1234.36V167.613H1246.56V162.547Z" fill="#042750" stroke="#042750" stroke-linecap="round" stroke-linejoin="round"/>
<path id="Vector_71" d="M1274.01 188.893H1268.93V193.96H1274.01V188.893Z" fill="white" stroke="#042750" stroke-linecap="round" stroke-linejoin="round"/>
<path id="Vector_72" d="M1248.59 173.693H1242.49V179.773H1248.59V173.693Z" fill="#042750" stroke="#042750" stroke-linecap="round" stroke-linejoin="round"/>
<path id="Vector_73" d="M1249.1 192.924L1254.19 195.85C1254.34 195.939 1254.52 195.986 1254.69 195.986C1254.87 195.986 1255.05 195.939 1255.2 195.85C1255.36 195.76 1255.49 195.632 1255.58 195.478C1255.66 195.324 1255.71 195.149 1255.71 194.971V189.121C1255.71 188.944 1255.66 188.769 1255.57 188.615C1255.49 188.461 1255.36 188.333 1255.2 188.245C1255.05 188.156 1254.87 188.109 1254.69 188.109C1254.52 188.109 1254.34 188.156 1254.19 188.245L1249.1 191.173C1248.95 191.263 1248.82 191.39 1248.73 191.544C1248.64 191.698 1248.6 191.872 1248.6 192.049C1248.6 192.226 1248.64 192.4 1248.73 192.553C1248.82 192.707 1248.95 192.835 1249.1 192.924V192.924Z" fill="white" stroke="#042750" stroke-linecap="round" stroke-linejoin="round"/>
<path id="Vector_74" d="M1261.3 167.867L1256.22 164.943C1256.06 164.854 1255.89 164.807 1255.71 164.807C1255.53 164.807 1255.36 164.854 1255.2 164.943C1255.05 165.032 1254.92 165.159 1254.83 165.313C1254.74 165.467 1254.69 165.642 1254.69 165.82V171.667C1254.69 171.845 1254.74 172.02 1254.83 172.174C1254.92 172.328 1255.05 172.456 1255.2 172.545C1255.36 172.634 1255.53 172.681 1255.71 172.681C1255.89 172.681 1256.06 172.635 1256.22 172.546L1261.3 169.62C1261.46 169.531 1261.59 169.403 1261.67 169.249C1261.76 169.095 1261.81 168.921 1261.81 168.743C1261.81 168.566 1261.76 168.391 1261.67 168.237C1261.59 168.084 1261.46 167.956 1261.3 167.867V167.867Z" fill="#042750" stroke="#042750" stroke-linecap="round" stroke-linejoin="round"/>
<path id="Vector_75" d="M1302.48 167.613H1291.3V186.867H1302.48V167.613Z" fill="#042750" stroke="#042750" stroke-linecap="round" stroke-linejoin="round"/>
<path id="Vector_76" d="M1302.48 172.68H1298.42V176.733H1302.48V172.68Z" fill="white" stroke="#042750" stroke-linecap="round" stroke-linejoin="round"/>
<path id="Vector_77" d="M1302.48 201.053H1297.4V208.147H1302.48V201.053Z" fill="#042750" stroke="#042750" stroke-linecap="round" stroke-linejoin="round"/>
<path id="Vector_78" d="M1294.35 177.747H1279.1V182.813H1294.35V177.747Z" fill="white" stroke="#042750" stroke-linecap="round" stroke-linejoin="round"/>
<path id="Vector_79" d="M1284.18 182.813V184.84C1289.26 183.827 1291.3 182.813 1291.3 182.813H1284.18Z" fill="#042750" stroke="#042750" stroke-linecap="round" stroke-linejoin="round"/>
<path id="Vector_80" d="M1207.92 198.013V200.04C1203.92 200.04 1194.7 198.013 1194.7 198.013H1207.92Z" fill="#042750" stroke="#042750" stroke-linecap="round" stroke-linejoin="round"/>
<path id="Vector_81" d="M1287.23 203.08H1284.18V204.093C1285.23 203.858 1286.25 203.519 1287.23 203.08Z" fill="#042750" stroke="#042750" stroke-linecap="round" stroke-linejoin="round"/>
<path id="Vector_82" d="M1214.02 152.413H1194.7C1193.58 152.413 1192.67 153.321 1192.67 154.44V170.653C1192.67 171.773 1193.58 172.68 1194.7 172.68H1214.02C1215.15 172.68 1216.06 171.773 1216.06 170.653V154.44C1216.06 153.321 1215.15 152.413 1214.02 152.413Z" stroke="#042750" stroke-linecap="round" stroke-linejoin="round"/>
<path id="Vector_83" d="M1206.91 158.493H1203.86C1202.73 158.493 1201.82 159.401 1201.82 160.52V163.56C1201.82 164.679 1202.73 165.587 1203.86 165.587H1206.91C1208.03 165.587 1208.94 164.679 1208.94 163.56V160.52C1208.94 159.401 1208.03 158.493 1206.91 158.493Z" stroke="#042750" stroke-linecap="round" stroke-linejoin="round"/>
<path id="Vector_84" d="M1200.81 159.507V158.493C1200.81 157.687 1201.13 156.914 1201.7 156.344C1202.27 155.774 1203.05 155.453 1203.86 155.453H1206.91C1207.71 155.453 1208.49 155.774 1209.06 156.344C1209.63 156.914 1209.96 157.687 1209.96 158.493V159.507" stroke="#042750" stroke-linecap="round" stroke-linejoin="round"/>
<path id="Vector_85" d="M1201.82 160.52C1201.82 159.96 1201.37 159.507 1200.81 159.507C1200.24 159.507 1199.79 159.96 1199.79 160.52V162.547C1199.79 163.106 1200.24 163.56 1200.81 163.56C1201.37 163.56 1201.82 163.106 1201.82 162.547V160.52Z" fill="#042750" stroke="#042750" stroke-linecap="round" stroke-linejoin="round"/>
<path id="Vector_86" d="M1210.97 160.52C1210.97 159.96 1210.52 159.507 1209.96 159.507C1209.39 159.507 1208.94 159.96 1208.94 160.52V162.547C1208.94 163.106 1209.39 163.56 1209.96 163.56C1210.52 163.56 1210.97 163.106 1210.97 162.547V160.52Z" fill="#042750" stroke="#042750" stroke-linecap="round" stroke-linejoin="round"/>
<path id="Vector_87" d="M1199.95 165.587H1209.96C1210.5 165.587 1211.01 165.8 1211.39 166.18C1211.78 166.56 1211.99 167.076 1211.99 167.613V172.68H1194.7L1198.19 166.6C1198.37 166.291 1198.62 166.035 1198.93 165.857C1199.24 165.68 1199.59 165.586 1199.95 165.587Z" fill="#042750" stroke="#042750" stroke-linecap="round" stroke-linejoin="round"/>
<path id="Vector_88" d="M1214.02 193.96H1205.89V203.08H1214.02V193.96Z" fill="white" stroke="#042750" stroke-linecap="round" stroke-linejoin="round"/>
<path id="Vector_89" d="M1205.02 187.941H1190.49C1189.99 187.941 1189.51 188.139 1189.16 188.491C1188.8 188.843 1188.6 189.32 1188.6 189.818V196.075C1188.6 196.573 1188.8 197.051 1189.16 197.403C1189.51 197.755 1189.99 197.953 1190.49 197.953H1209.68C1209.78 197.952 1209.88 197.921 1209.96 197.864C1210.05 197.807 1210.11 197.726 1210.15 197.631C1210.19 197.537 1210.19 197.433 1210.17 197.334C1210.15 197.235 1210.1 197.145 1210.02 197.076L1206.91 194.198V189.818C1206.91 189.32 1206.71 188.843 1206.35 188.491C1206 188.139 1205.52 187.941 1205.02 187.941Z" fill="white" stroke="#042750" stroke-linecap="round" stroke-linejoin="round"/>
<path id="Vector_90" d="M1194.7 192.947C1194.7 192.387 1194.25 191.933 1193.69 191.933C1193.13 191.933 1192.67 192.387 1192.67 192.947C1192.67 193.506 1193.13 193.96 1193.69 193.96C1194.25 193.96 1194.7 193.506 1194.7 192.947Z" fill="#042750" stroke="#042750" stroke-linecap="round" stroke-linejoin="round"/>
<path id="Vector_91" d="M1198.77 192.947C1198.77 192.387 1198.32 191.933 1197.75 191.933C1197.19 191.933 1196.74 192.387 1196.74 192.947C1196.74 193.506 1197.19 193.96 1197.75 193.96C1198.32 193.96 1198.77 193.506 1198.77 192.947Z" fill="#042750" stroke="#042750" stroke-linecap="round" stroke-linejoin="round"/>
<path id="Vector_92" d="M1202.84 192.947C1202.84 192.387 1202.38 191.933 1201.82 191.933C1201.26 191.933 1200.81 192.387 1200.81 192.947C1200.81 193.506 1201.26 193.96 1201.82 193.96C1202.38 193.96 1202.84 193.506 1202.84 192.947Z" fill="#042750" stroke="#042750" stroke-linecap="round" stroke-linejoin="round"/>
<path id="Vector_93" d="M1230.29 155.453H1213.01V160.52H1230.29V155.453Z" fill="#042750" stroke="#042750" stroke-linecap="round" stroke-linejoin="round"/>
<path id="Vector_94" d="M1308.58 162.547L1317.73 165.587V183.827H1308.58V162.547Z" fill="#042750" stroke="#042750" stroke-linecap="round" stroke-linejoin="round"/>
<path id="Vector_95" d="M1308.58 180.787L1348.24 193.96V215.24H1308.58V180.787Z" fill="white" stroke="#042750" stroke-linecap="round" stroke-linejoin="round"/>
<path id="Vector_96" d="M1327.9 193.96H1322.82V202.067H1327.9V193.96Z" fill="white" stroke="#042750" stroke-linecap="round" stroke-linejoin="round"/>
<path id="Vector_97" d="M1336.04 175.72C1338.73 175.72 1341.32 176.788 1343.23 178.688C1345.13 180.588 1346.2 183.166 1346.2 185.853V186.867C1346.2 189.554 1345.13 192.132 1343.23 194.032C1341.32 195.932 1338.73 197 1336.04 197H1325.87V185.853C1325.87 183.166 1326.94 180.588 1328.85 178.688C1330.75 176.788 1333.34 175.72 1336.04 175.72Z" fill="white" stroke="#042750" stroke-linecap="round" stroke-linejoin="round"/>
<path id="Vector_98" d="M1338.07 182.813C1339.19 182.813 1340.1 181.906 1340.1 180.787C1340.1 179.667 1339.19 178.76 1338.07 178.76C1336.95 178.76 1336.04 179.667 1336.04 180.787C1336.04 181.906 1336.95 182.813 1338.07 182.813Z" fill="white" stroke="#042750" stroke-linecap="round" stroke-linejoin="round"/>
<path id="Vector_99" d="M1327.9 197V199.027C1335.02 198.013 1337.05 197 1337.05 197H1327.9Z" fill="#042750" stroke="#042750" stroke-linecap="round" stroke-linejoin="round"/>
<path id="Vector_100" d="M1337.05 182.813H1334C1332.88 182.813 1331.97 183.721 1331.97 184.84V187.88C1331.97 188.999 1332.88 189.907 1334 189.907H1337.05C1338.18 189.907 1339.09 188.999 1339.09 187.88V184.84C1339.09 183.721 1338.18 182.813 1337.05 182.813Z" fill="white" stroke="#042750" stroke-linecap="round" stroke-linejoin="round"/>
<path id="Vector_101" d="M1338.07 186.867C1338.41 186.866 1338.75 186.821 1339.09 186.735V184.84C1339.09 184.302 1338.87 183.787 1338.49 183.407C1338.11 183.027 1337.59 182.813 1337.05 182.813H1334C1334 183.888 1334.43 184.919 1335.19 185.679C1335.96 186.44 1336.99 186.867 1338.07 186.867Z" fill="white" stroke="#042750" stroke-linecap="round" stroke-linejoin="round"/>
<path id="Vector_102" d="M1342.14 194.973V192.947C1342.14 192.14 1341.82 191.367 1341.24 190.797C1340.67 190.227 1339.9 189.907 1339.09 189.907H1331.71C1331.18 189.907 1330.65 190.049 1330.18 190.318C1329.72 190.587 1329.33 190.974 1329.07 191.439L1325.87 197H1336.04C1338.24 197.003 1340.38 196.292 1342.14 194.973Z" fill="white" stroke="#042750" stroke-linecap="round" stroke-linejoin="round"/>
</g>
<g id="Group 194">
<path id="Vector_103" d="M1088 147.498L1088 143.289C1088 142.883 1088.1 142.485 1088.3 142.135C1088.49 141.785 1088.77 141.496 1089.1 141.296C1089.44 141.097 1089.82 140.995 1090.2 141C1090.59 141.006 1090.96 141.119 1091.29 141.327L1094.52 143.371L1097.95 145.539C1098.27 145.742 1098.53 146.03 1098.72 146.373C1098.9 146.717 1099 147.105 1099 147.5C1099 147.895 1098.9 148.283 1098.72 148.627C1098.53 148.97 1098.27 149.258 1097.95 149.461L1094.52 151.629L1091.29 153.673C1090.96 153.881 1090.59 153.994 1090.2 154C1089.82 154.005 1089.44 153.903 1089.1 153.704C1088.77 153.504 1088.49 153.215 1088.3 152.865C1088.1 152.515 1088 152.117 1088 151.711L1088 147.498Z" fill="#0B2750"/>
<path id="Vector_104" d="M1118 191C1115.79 191 1114 192.791 1114 195C1114 197.209 1115.79 199 1118 199C1120.21 199 1122 197.209 1122 195C1122 192.791 1120.21 191 1118 191Z" fill="#0B2750"/>
<path id="Vector_105" d="M1065.22 212.665L1057.36 208.207C1057.12 208.071 1056.85 208 1056.57 208C1056.3 208 1056.02 208.072 1055.79 208.207C1055.55 208.343 1055.35 208.538 1055.21 208.773C1055.07 209.008 1055 209.275 1055 209.546L1055 218.458C1055 218.729 1055.07 218.995 1055.21 219.229C1055.35 219.464 1055.55 219.658 1055.79 219.794C1056.03 219.929 1056.3 220 1056.57 220C1056.85 220 1057.12 219.929 1057.36 219.793L1065.22 215.332C1065.46 215.196 1065.65 215.001 1065.79 214.767C1065.93 214.533 1066 214.268 1066 213.998C1066 213.728 1065.93 213.463 1065.79 213.229C1065.65 212.995 1065.46 212.801 1065.22 212.665V212.665Z" fill="white" stroke="#042750" stroke-linecap="round" stroke-linejoin="round"/>
</g>
<g id="illustration_clouds_2 2">
<path id="Vector_106" d="M1423.85 88.1478L1423.85 87.899C1423.85 86.9231 1423.95 85.9499 1424.15 84.995L1424.15 84.995C1424.81 81.8553 1426.54 79.0396 1429.02 77.0192C1431.51 74.9988 1434.62 73.8962 1437.82 73.8962L1498.51 73.8962C1502.22 73.8962 1505.77 75.3715 1508.4 77.9975C1511.02 80.6235 1512.49 84.1852 1512.49 87.899L1512.49 88.1478C1512.49 91.8616 1511.02 95.4233 1508.4 98.0493C1505.77 100.675 1502.22 102.151 1498.51 102.151L1437.82 102.151C1434.12 102.151 1430.56 100.675 1427.94 98.0493C1425.32 95.4233 1423.85 91.8616 1423.85 88.1478Z" fill="white" stroke="#0B2750" stroke-width="2" stroke-linecap="round" stroke-linejoin="round"/>
<path id="Vector_107" d="M1390.61 74.3272L1390.61 73.4649C1390.61 72.0639 1390.88 70.6766 1391.42 69.3822C1391.95 68.0877 1392.74 66.9116 1393.73 65.9208C1394.72 64.9301 1395.89 64.1441 1397.18 63.6079C1398.47 63.0716 1399.86 62.7956 1401.26 62.7954L1450.47 62.7954C1453.29 62.7956 1456 63.9198 1458 65.9207C1460 67.9215 1461.12 70.6352 1461.12 73.4649L1461.12 73.896L1437.82 73.896C1434.62 73.8961 1431.51 74.9986 1429.02 77.019C1426.54 79.0394 1424.81 81.8552 1424.15 84.9949L1401.26 84.9949C1399.86 84.9949 1398.47 84.7191 1397.18 84.183C1395.89 83.6469 1394.72 82.8611 1393.73 81.8705C1392.74 80.8799 1391.95 79.7039 1391.42 78.4096C1390.88 77.1153 1390.61 75.7281 1390.61 74.3272V74.3272Z" fill="white" stroke="#0B2750" stroke-width="2" stroke-linecap="round" stroke-linejoin="round"/>
<path id="Vector_108" d="M1367.39 138.479L1395.7 138.479C1399.01 138.479 1401.69 135.792 1401.69 132.478L1401.69 132.37C1401.69 129.056 1399.01 126.369 1395.7 126.369L1367.39 126.369C1364.08 126.369 1361.4 129.056 1361.4 132.37L1361.4 132.478C1361.4 135.792 1364.08 138.479 1367.39 138.479Z" fill="white" stroke="#0B2750" stroke-width="2" stroke-linecap="round" stroke-linejoin="round"/>
<path id="Vector_109" d="M1421.33 108.205C1413.82 108.205 1407.73 114.304 1407.73 121.828C1407.73 129.352 1413.82 135.451 1421.33 135.451C1428.84 135.451 1434.93 129.352 1434.93 121.828C1434.93 114.304 1428.84 108.205 1421.33 108.205Z" fill="#0B2750"/>
<path id="Vector_110" d="M1460.71 71.2084L1438.31 74.0125L1461.41 74.0125L1460.71 71.2084Z" fill="#0B2750"/>
</g>
</g>
<g id="panel-1">
<g id="illustration_router_front 1" clip-path="url(#clip2_1060_850)">
<path id="Vector_111" d="M128.92 238.87L57.4574 197.503V170.159L128.92 211.353V238.87Z" fill="white" stroke="#0B2750" stroke-width="2" stroke-linejoin="round"/>
<path id="Vector_112" d="M267.001 201.836L128.874 238.87V211.353L267.001 174.319V201.836Z" fill="white" stroke="#0B2750" stroke-width="2" stroke-linejoin="round"/>
<path id="Vector_113" d="M195.742 133.083L57.4574 170.159L128.874 211.353L266.939 174.211L195.742 133.083Z" fill="white" stroke="#0B2750" stroke-width="2" stroke-linejoin="round"/>
<path id="Vector_114" d="M35.842 185.02C35.5687 184.84 35.3534 184.584 35.2222 184.284C35.0911 183.984 35.0497 183.652 35.103 183.329C35.1564 183.006 35.3023 182.705 35.5229 182.464C35.7436 182.222 36.0296 182.049 36.3463 181.967L57.3536 177.461L57.4567 197.885L35.842 185.02Z" fill="#0B2750"/>
<path id="path10" d="M173.347 175.844C172.759 175.891 172.176 175.982 171.602 176.115C170.142 176.483 170.055 177.168 171.233 177.859C172.276 178.47 173.532 178.59 174.694 178.532C174.824 178.526 175.014 178.516 175.141 178.511C175.594 178.454 176.055 178.519 176.475 178.701C176.832 178.91 176.7 179.137 175.913 179.335C175.343 179.461 174.765 179.542 174.183 179.576L175.633 180.426C176.266 180.354 176.894 180.244 177.514 180.096C178.726 179.791 179.581 179.13 177.998 178.203C176.984 177.671 175.84 177.435 174.698 177.523L174.121 177.551C173.672 177.613 173.215 177.554 172.795 177.382C172.492 177.205 172.624 176.993 173.259 176.832C173.73 176.731 174.208 176.665 174.689 176.633L173.347 175.844ZM189.794 174.268C190.71 174.806 190.753 175.416 189.814 175.653C188.684 175.85 187.52 175.652 186.518 175.093C185.604 174.557 185.559 173.946 186.499 173.71C187.629 173.513 188.792 173.71 189.794 174.268M184.897 172.769C182.967 173.255 183.044 174.461 184.843 175.516C186.643 176.57 189.491 177.08 191.421 176.594C193.352 176.107 193.278 174.902 191.475 173.846C189.672 172.789 186.827 172.283 184.897 172.769ZM173.556 180.999L171.972 181.397L165.671 177.705L167.255 177.306" fill="#0B2750"/>
<path id="path12" d="M163.608 178.32C163.045 178.344 162.486 178.422 161.938 178.551C160.011 179.036 159.975 180.202 161.857 181.303C163.887 182.493 166.682 182.822 168.462 182.374C168.892 182.274 169.304 182.107 169.682 181.879L167.991 180.887C167.73 181.174 167.378 181.362 166.994 181.418C165.826 181.648 164.614 181.453 163.576 180.87C162.611 180.304 162.606 179.706 163.631 179.447C164.178 179.326 164.739 179.279 165.299 179.31" fill="#0B2750"/>
<g id="use14">
<path id="path12_2" d="M180.139 174.156C179.576 174.182 179.017 174.26 178.469 174.389C176.541 174.875 176.506 176.04 178.388 177.141C180.418 178.331 183.213 178.661 184.993 178.212C185.423 178.112 185.835 177.945 186.213 177.717L184.522 176.726C184.261 177.013 183.908 177.2 183.525 177.257C182.356 177.486 181.145 177.291 180.107 176.706C179.142 176.141 179.137 175.542 180.162 175.284C180.709 175.162 181.27 175.116 181.829 175.147" fill="#0B2750"/>
</g>
<g id="g22">
<path id="path16" d="M153.753 170.723C153.273 170.461 152.719 170.368 152.18 170.46C151.747 170.569 151.746 170.865 152.18 171.119L160.547 176.024C161.027 176.286 161.582 176.379 162.122 176.288C162.555 176.179 162.557 175.884 162.12 175.627L153.753 170.723ZM152.404 173.552C151.924 173.29 151.37 173.197 150.831 173.289C150.398 173.398 150.397 173.694 150.831 173.948L154.656 176.19C155.136 176.453 155.691 176.546 156.231 176.454C156.664 176.345 156.665 176.05 156.228 175.794L152.404 173.552ZM150.256 175.912C149.776 175.65 149.222 175.557 148.684 175.649C148.251 175.758 148.249 176.053 148.684 176.308L150.337 177.278C150.818 177.54 151.373 177.634 151.912 177.542C152.345 177.433 152.347 177.137 151.91 176.881" fill="#0B2750"/>
<g id="use18">
<path id="path16_2" d="M152.182 171.119C151.747 170.865 151.748 170.569 152.182 170.46C152.72 170.368 153.274 170.461 153.754 170.723L162.121 175.628C162.558 175.884 162.556 176.178 162.123 176.288C161.584 176.38 161.029 176.287 160.548 176.024L152.182 171.119ZM159.469 171.773C159.035 171.518 159.035 171.223 159.469 171.113C160.008 171.022 160.562 171.115 161.042 171.377L164.867 173.619C165.303 173.875 165.303 174.169 164.87 174.279C164.33 174.371 163.775 174.278 163.295 174.015L159.469 171.773ZM165.959 171.958C165.525 171.703 165.526 171.407 165.959 171.299C166.498 171.207 167.052 171.3 167.531 171.562L169.188 172.532C169.624 172.788 169.622 173.082 169.19 173.192C168.65 173.284 168.095 173.191 167.615 172.928" fill="#0B2750"/>
</g>
</g>
<g id="use20">
<g id="g22_2">
<path id="path16_3" d="M169.453 166.77C169.018 166.515 169.019 166.22 169.453 166.111C169.991 166.019 170.546 166.112 171.026 166.374L179.392 171.278C179.829 171.534 179.827 171.828 179.394 171.938C178.855 172.03 178.299 171.937 177.819 171.674L169.453 166.77ZM176.742 167.423C176.308 167.169 176.308 166.873 176.742 166.764C177.281 166.673 177.835 166.765 178.315 167.028L182.14 169.27C182.577 169.525 182.576 169.82 182.142 169.93C181.603 170.022 181.048 169.929 180.567 169.666L176.742 167.423ZM183.231 167.609C182.797 167.354 182.798 167.058 183.231 166.949C183.77 166.858 184.324 166.95 184.804 167.212L186.458 168.182C186.895 168.438 186.893 168.732 186.461 168.842C185.921 168.934 185.366 168.841 184.886 168.578" fill="#0B2750"/>
<g id="use18_2">
<path id="path16_4" d="M171.026 166.375C170.546 166.113 169.991 166.021 169.453 166.112C169.019 166.221 169.018 166.517 169.453 166.771L177.819 171.675C178.299 171.938 178.854 172.032 179.394 171.94C179.827 171.831 179.829 171.535 179.392 171.279L171.026 166.375ZM169.676 169.204C169.196 168.942 168.642 168.849 168.103 168.941C167.67 169.05 167.669 169.345 168.103 169.6L171.928 171.842C172.408 172.105 172.963 172.198 173.503 172.106C173.936 171.997 173.937 171.702 173.5 171.446L169.676 169.204ZM167.528 171.564C167.048 171.302 166.494 171.209 165.956 171.301C165.523 171.41 165.521 171.706 165.956 171.96L167.609 172.929C168.09 173.192 168.645 173.286 169.184 173.194C169.618 173.085 169.619 172.789 169.182 172.533" fill="#0B2750"/>
</g>
</g>
</g>
<path id="Vector_115" d="M257.376 195.739L246.912 198.491V190.052L257.376 187.301V195.739Z" stroke="#0B2750" stroke-width="2" stroke-linecap="round" stroke-linejoin="round"/>
<path id="Vector_116" d="M253.971 199.623L251.369 200.298C251.267 200.324 251.161 200.327 251.058 200.306C250.956 200.285 250.859 200.24 250.776 200.176C250.693 200.112 250.626 200.029 250.58 199.935C250.534 199.841 250.51 199.737 250.509 199.632V197.872L254.486 196.84V198.957C254.486 199.11 254.436 199.258 254.342 199.378C254.249 199.499 254.118 199.585 253.971 199.623V199.623Z" fill="#0D274D" stroke="#0B2750" stroke-width="2" stroke-linecap="round" stroke-linejoin="round"/>
<path id="Vector_117" d="M242.251 199.684L231.787 202.435V193.997L242.251 191.245V199.684Z" stroke="#0B2750" stroke-width="2" stroke-linecap="round" stroke-linejoin="round"/>
<path id="Vector_118" d="M238.986 203.457L236.385 204.133C236.283 204.159 236.177 204.162 236.074 204.14C235.971 204.119 235.875 204.075 235.792 204.01C235.709 203.946 235.642 203.864 235.596 203.77C235.549 203.675 235.525 203.572 235.525 203.467V201.707L239.502 200.675V202.792C239.502 202.944 239.451 203.092 239.358 203.213C239.265 203.333 239.134 203.419 238.986 203.457Z" fill="#0D274D" stroke="#0B2750" stroke-width="2" stroke-linecap="round" stroke-linejoin="round"/>
<path id="Vector_119" d="M64.6913 182.356C64.9335 182.203 64.912 181.734 64.6433 181.308C64.3746 180.882 63.9604 180.661 63.7181 180.814C63.4759 180.967 63.4974 181.437 63.7661 181.863C64.0348 182.288 64.449 182.509 64.6913 182.356Z" fill="#0B2750" stroke="#0D274D" stroke-width="2" stroke-miterlimit="10"/>
<path id="Vector_120" d="M64.6751 186.679C64.9174 186.526 64.8959 186.057 64.6272 185.631C64.3585 185.205 63.9443 184.984 63.702 185.137C63.4598 185.29 63.4813 185.759 63.75 186.185C64.0187 186.611 64.4329 186.832 64.6751 186.679Z" fill="#0B2750" stroke="#0D274D" stroke-width="2" stroke-miterlimit="10"/>
<path id="Vector_121" d="M64.659 191.001C64.9012 190.848 64.8797 190.379 64.611 189.953C64.3423 189.528 63.9281 189.306 63.6859 189.459C63.4436 189.612 63.4651 190.082 63.7338 190.508C64.0025 190.933 64.4167 191.154 64.659 191.001Z" fill="#0B2750" stroke="#0D274D" stroke-width="2" stroke-miterlimit="10"/>
<path id="Vector_122" d="M64.6429 195.324C64.8851 195.171 64.8637 194.702 64.5949 194.276C64.3262 193.85 63.912 193.629 63.6698 193.782C63.4276 193.935 63.449 194.404 63.7178 194.83C63.9865 195.256 64.4007 195.477 64.6429 195.324Z" fill="#0B2750" stroke="#0D274D" stroke-width="2" stroke-miterlimit="10"/>
<path id="Vector_123" d="M68.6216 184.697C68.8638 184.544 68.8424 184.074 68.5736 183.649C68.3049 183.223 67.8907 183.002 67.6485 183.155C67.4063 183.308 67.4277 183.777 67.6965 184.203C67.9652 184.629 68.3794 184.85 68.6216 184.697Z" fill="#0B2750" stroke="#0D274D" stroke-width="2" stroke-miterlimit="10"/>
<path id="Vector_124" d="M68.6053 189.019C68.8475 188.866 68.8261 188.397 68.5573 187.971C68.2886 187.545 67.8744 187.324 67.6322 187.477C67.39 187.63 67.4114 188.099 67.6802 188.525C67.9489 188.951 68.3631 189.172 68.6053 189.019Z" fill="#0B2750" stroke="#0D274D" stroke-width="2" stroke-miterlimit="10"/>
<path id="Vector_125" d="M68.5892 193.342C68.8314 193.189 68.8099 192.719 68.5412 192.294C68.2725 191.868 67.8583 191.647 67.6161 191.8C67.3738 191.953 67.3953 192.422 67.664 192.848C67.9328 193.274 68.347 193.495 68.5892 193.342Z" fill="#0B2750" stroke="#0D274D" stroke-width="2" stroke-miterlimit="10"/>
<path id="Vector_126" d="M68.5731 197.664C68.8153 197.511 68.7938 197.042 68.5251 196.616C68.2564 196.19 67.8422 195.969 67.6 196.122C67.3577 196.275 67.3792 196.745 67.6479 197.17C67.9166 197.596 68.3308 197.817 68.5731 197.664Z" fill="#0B2750" stroke="#0D274D" stroke-width="2" stroke-miterlimit="10"/>
<path id="Vector_127" d="M72.5521 187.037C72.7943 186.884 72.7728 186.414 72.5041 185.988C72.2354 185.563 71.8212 185.342 71.579 185.495C71.3368 185.648 71.3582 186.117 71.6269 186.543C71.8957 186.969 72.3099 187.19 72.5521 187.037Z" fill="#0B2750" stroke="#0D274D" stroke-width="2" stroke-miterlimit="10"/>
<path id="Vector_128" d="M72.5354 191.359C72.7776 191.206 72.7561 190.737 72.4874 190.311C72.2187 189.885 71.8045 189.664 71.5622 189.817C71.32 189.97 71.3415 190.44 71.6102 190.865C71.8789 191.291 72.2931 191.512 72.5354 191.359Z" fill="#0B2750" stroke="#0D274D" stroke-width="2" stroke-miterlimit="10"/>
<path id="Vector_129" d="M72.5192 195.682C72.7614 195.529 72.7399 195.06 72.4712 194.634C72.2025 194.208 71.7883 193.987 71.5461 194.14C71.3038 194.293 71.3253 194.762 71.594 195.188C71.8628 195.614 72.277 195.835 72.5192 195.682Z" fill="#0B2750" stroke="#0D274D" stroke-width="2" stroke-miterlimit="10"/>
<path id="Vector_130" d="M72.5031 200.004C72.7453 199.851 72.7238 199.382 72.4551 198.956C72.1864 198.53 71.7722 198.309 71.53 198.462C71.2877 198.615 71.3092 199.085 71.5779 199.51C71.8466 199.936 72.2608 200.157 72.5031 200.004Z" fill="#0B2750" stroke="#0D274D" stroke-width="2" stroke-miterlimit="10"/>
<path id="Vector_131" d="M76.6151 189.446C76.8574 189.293 76.8361 188.823 76.5673 188.397C76.2985 187.971 75.8842 187.75 75.6418 187.903C75.3995 188.056 75.4209 188.526 75.6896 188.952C75.9584 189.378 76.3727 189.599 76.6151 189.446Z" fill="#0B2750" stroke="#0D274D" stroke-width="2.00087" stroke-miterlimit="10"/>
<path id="Vector_132" d="M76.4655 193.699C76.7077 193.546 76.6862 193.077 76.4175 192.651C76.1488 192.225 75.7346 192.004 75.4924 192.157C75.2501 192.31 75.2716 192.78 75.5403 193.205C75.809 193.631 76.2233 193.852 76.4655 193.699Z" fill="#0B2750" stroke="#0D274D" stroke-width="2" stroke-miterlimit="10"/>
<path id="Vector_133" d="M76.4494 198.022C76.6916 197.869 76.6701 197.399 76.4014 196.974C76.1327 196.548 75.7185 196.327 75.4763 196.48C75.234 196.633 75.2555 197.102 75.5242 197.528C75.7929 197.954 76.2071 198.175 76.4494 198.022Z" fill="#0B2750" stroke="#0D274D" stroke-width="2" stroke-miterlimit="10"/>
<path id="Vector_134" d="M76.5674 202.42C76.8097 202.267 76.7883 201.797 76.5196 201.371C76.2508 200.945 75.8365 200.724 75.5941 200.877C75.3518 201.03 75.3731 201.5 75.6419 201.926C75.9107 202.352 76.325 202.573 76.5674 202.42Z" fill="#0B2750" stroke="#0D274D" stroke-width="2.00087" stroke-miterlimit="10"/>
<path id="Vector_135" d="M80.4121 191.717C80.6544 191.564 80.6329 191.094 80.3642 190.669C80.0955 190.243 79.6812 190.022 79.439 190.175C79.1968 190.328 79.2183 190.797 79.487 191.223C79.7557 191.649 80.1699 191.87 80.4121 191.717Z" fill="#0B2750" stroke="#0D274D" stroke-width="2" stroke-miterlimit="10"/>
<path id="Vector_136" d="M80.3957 196.04C80.638 195.886 80.6165 195.417 80.3478 194.991C80.079 194.566 79.6648 194.344 79.4226 194.498C79.1804 194.651 79.2018 195.12 79.4706 195.546C79.7393 195.971 80.1535 196.193 80.3957 196.04Z" fill="#0B2750" stroke="#0D274D" stroke-width="2" stroke-miterlimit="10"/>
<path id="Vector_137" d="M80.5154 200.436C80.7577 200.283 80.7363 199.814 80.4676 199.388C80.1988 198.962 79.7845 198.74 79.5421 198.893C79.2998 199.047 79.3211 199.516 79.5899 199.942C79.8587 200.368 80.273 200.589 80.5154 200.436Z" fill="#0B2750" stroke="#0D274D" stroke-width="2.00087" stroke-miterlimit="10"/>
<path id="Vector_138" d="M80.3634 204.685C80.6057 204.531 80.5842 204.062 80.3155 203.636C80.0467 203.211 79.6326 202.989 79.3903 203.143C79.1481 203.296 79.1696 203.765 79.4383 204.191C79.707 204.616 80.1212 204.838 80.3634 204.685Z" fill="#0B2750" stroke="#0D274D" stroke-width="2" stroke-miterlimit="10"/>
<path id="Vector_139" d="M84.3423 194.057C84.5845 193.904 84.5631 193.434 84.2943 193.008C84.0256 192.583 83.6114 192.362 83.3692 192.515C83.127 192.668 83.1484 193.137 83.4172 193.563C83.6859 193.989 84.1001 194.21 84.3423 194.057Z" fill="#0B2750" stroke="#0D274D" stroke-width="2" stroke-miterlimit="10"/>
<path id="Vector_140" d="M84.3259 198.379C84.5681 198.226 84.5466 197.757 84.2779 197.331C84.0092 196.905 83.595 196.684 83.3528 196.837C83.1105 196.99 83.132 197.46 83.4007 197.885C83.6695 198.311 84.0837 198.532 84.3259 198.379Z" fill="#0B2750" stroke="#0D274D" stroke-width="2" stroke-miterlimit="10"/>
<path id="Vector_141" d="M84.4472 202.777C84.6896 202.624 84.6682 202.155 84.3994 201.729C84.1307 201.302 83.7163 201.081 83.474 201.234C83.2316 201.387 83.253 201.857 83.5218 202.283C83.7905 202.709 84.2049 202.93 84.4472 202.777Z" fill="#0B2750" stroke="#0D274D" stroke-width="2.00087" stroke-miterlimit="10"/>
<path id="Vector_142" d="M84.2933 207.024C84.5355 206.871 84.5141 206.402 84.2453 205.976C83.9766 205.55 83.5624 205.329 83.3202 205.482C83.0779 205.635 83.0994 206.105 83.3681 206.531C83.6369 206.956 84.0511 207.177 84.2933 207.024Z" fill="#0B2750" stroke="#0D274D" stroke-width="2" stroke-miterlimit="10"/>
<path id="Vector_143" d="M88.2721 196.397C88.5143 196.244 88.4928 195.774 88.2241 195.349C87.9554 194.923 87.5412 194.702 87.299 194.855C87.0567 195.008 87.0782 195.477 87.3469 195.903C87.6156 196.329 88.0298 196.55 88.2721 196.397Z" fill="#0B2750" stroke="#0D274D" stroke-width="2" stroke-miterlimit="10"/>
<path id="Vector_144" d="M88.256 200.719C88.4982 200.566 88.4767 200.097 88.208 199.671C87.9393 199.245 87.5251 199.024 87.2828 199.177C87.0406 199.33 87.0621 199.8 87.3308 200.225C87.5995 200.651 88.0137 200.872 88.256 200.719Z" fill="#0B2750" stroke="#0D274D" stroke-width="2" stroke-miterlimit="10"/>
<path id="Vector_145" d="M88.2396 205.042C88.4818 204.889 88.4603 204.42 88.1916 203.994C87.9229 203.568 87.5087 203.347 87.2665 203.5C87.0242 203.653 87.0457 204.122 87.3144 204.548C87.5832 204.974 87.9973 205.195 88.2396 205.042Z" fill="#0B2750" stroke="#0D274D" stroke-width="2" stroke-miterlimit="10"/>
<path id="Vector_146" d="M88.2235 209.364C88.4657 209.211 88.4442 208.742 88.1755 208.316C87.9068 207.891 87.4926 207.669 87.2504 207.822C87.0081 207.976 87.0296 208.445 87.2983 208.871C87.567 209.296 87.9812 209.518 88.2235 209.364Z" fill="#0B2750" stroke="#0D274D" stroke-width="2" stroke-miterlimit="10"/>
<path id="Vector_147" d="M92.2023 198.737C92.4445 198.583 92.423 198.114 92.1543 197.688C91.8856 197.263 91.4714 197.042 91.2292 197.195C90.9869 197.348 91.0084 197.817 91.2771 198.243C91.5459 198.668 91.9601 198.89 92.2023 198.737Z" fill="#0B2750" stroke="#0D274D" stroke-width="2" stroke-miterlimit="10"/>
<path id="Vector_148" d="M92.3277 203.134C92.57 202.981 92.5486 202.511 92.2799 202.085C92.0111 201.659 91.5968 201.438 91.3544 201.591C91.1121 201.744 91.1335 202.213 91.4022 202.639C91.671 203.065 92.0853 203.287 92.3277 203.134Z" fill="#0B2750" stroke="#0D274D" stroke-width="2.00087" stroke-miterlimit="10"/>
<path id="Vector_149" d="M92.1698 207.382C92.412 207.229 92.3905 206.759 92.1218 206.334C91.8531 205.908 91.4389 205.687 91.1967 205.84C90.9544 205.993 90.9759 206.462 91.2446 206.888C91.5133 207.314 91.9275 207.535 92.1698 207.382Z" fill="#0B2750" stroke="#0D274D" stroke-width="2" stroke-miterlimit="10"/>
<path id="Vector_150" d="M92.2958 211.783C92.5382 211.63 92.5168 211.16 92.248 210.734C91.9793 210.308 91.5649 210.087 91.3226 210.24C91.0802 210.393 91.1016 210.863 91.3704 211.289C91.6391 211.715 92.0535 211.936 92.2958 211.783Z" fill="#0B2750" stroke="#0D274D" stroke-width="2.00087" stroke-miterlimit="10"/>
<path id="Vector_151" d="M223.089 205.446L139.126 227.863V219.354L223.089 196.936V205.446Z" fill="white" stroke="#0B2750" stroke-width="2" stroke-linejoin="round"/>
<path id="Vector_152" d="M151.108 216.155V224.617" stroke="#0B2750" stroke-width="2" stroke-linejoin="round"/>
<path id="Vector_153" d="M163.09 212.729V221.328" stroke="#0B2750" stroke-width="2" stroke-linejoin="round"/>
<path id="Vector_154" d="M175.073 209.977V218.232" stroke="#0B2750" stroke-width="2" stroke-linejoin="round"/>
<path id="Vector_155" d="M187.055 206.537V215.136" stroke="#0B2750" stroke-width="2" stroke-linejoin="round"/>
<path id="Vector_156" d="M199.037 203.098V211.697" stroke="#0B2750" stroke-width="2" stroke-linejoin="round"/>
<path id="Vector_157" d="M211.019 200.346V208.601" stroke="#0B2750" stroke-width="2" stroke-linejoin="round"/>
<path id="Vector_158" d="M146.713 220.286L144.111 220.961C144.01 220.988 143.903 220.99 143.801 220.969C143.698 220.948 143.601 220.903 143.518 220.839C143.436 220.775 143.368 220.693 143.322 220.598C143.276 220.504 143.252 220.4 143.252 220.295V218.535L147.229 217.503V219.621C147.229 219.773 147.178 219.921 147.085 220.042C146.991 220.162 146.861 220.248 146.713 220.286Z" fill="#0D274D" stroke="#0B2750" stroke-width="2" stroke-linecap="round" stroke-linejoin="round"/>
<path id="Vector_159" d="M159.088 216.887L156.486 217.562C156.385 217.589 156.278 217.591 156.176 217.57C156.073 217.549 155.976 217.504 155.893 217.44C155.811 217.376 155.743 217.293 155.697 217.199C155.651 217.105 155.627 217.001 155.627 216.896V215.136L159.604 214.104V216.221C159.604 216.374 159.553 216.522 159.46 216.642C159.366 216.763 159.236 216.849 159.088 216.887V216.887Z" fill="#0D274D" stroke="#0B2750" stroke-width="2" stroke-linecap="round" stroke-linejoin="round"/>
<path id="Vector_160" d="M170.088 214.135L167.486 214.811C167.385 214.837 167.278 214.84 167.176 214.818C167.073 214.797 166.976 214.753 166.893 214.688C166.811 214.624 166.743 214.542 166.697 214.448C166.651 214.353 166.627 214.25 166.627 214.145V212.385L170.604 211.353V213.47C170.604 213.622 170.553 213.77 170.46 213.891C170.366 214.011 170.236 214.097 170.088 214.135V214.135Z" fill="#0D274D" stroke="#0B2750" stroke-width="2" stroke-linecap="round" stroke-linejoin="round"/>
<path id="Vector_161" d="M182.611 210.655L180.01 211.33C179.908 211.357 179.802 211.359 179.699 211.338C179.596 211.317 179.5 211.272 179.417 211.208C179.334 211.144 179.267 211.061 179.221 210.967C179.174 210.873 179.15 210.769 179.15 210.664V208.904L183.127 207.872V209.99C183.127 210.142 183.076 210.29 182.983 210.41C182.889 210.531 182.759 210.617 182.611 210.655Z" fill="#0D274D" stroke="#0B2750" stroke-width="2" stroke-linecap="round" stroke-linejoin="round"/>
<path id="Vector_162" d="M194.838 207.256L192.236 207.931C192.135 207.957 192.028 207.96 191.926 207.939C191.823 207.918 191.726 207.873 191.643 207.809C191.561 207.745 191.493 207.662 191.447 207.568C191.401 207.474 191.377 207.37 191.377 207.265V205.505L195.354 204.473V206.59C195.354 206.743 195.303 206.891 195.21 207.011C195.116 207.132 194.986 207.218 194.838 207.256V207.256Z" fill="#0D274D" stroke="#0B2750" stroke-width="2" stroke-linecap="round" stroke-linejoin="round"/>
<path id="Vector_163" d="M205.986 204.504L203.385 205.18C203.283 205.206 203.177 205.208 203.074 205.187C202.971 205.166 202.875 205.122 202.792 205.057C202.709 204.993 202.642 204.911 202.596 204.816C202.549 204.722 202.525 204.619 202.525 204.514V202.754L206.502 201.722V203.838C206.502 203.991 206.451 204.139 206.358 204.26C206.265 204.38 206.134 204.466 205.986 204.504V204.504Z" fill="#0D274D" stroke="#0B2750" stroke-width="2" stroke-linecap="round" stroke-linejoin="round"/>
<path id="Vector_164" d="M218.361 201.024L215.76 201.699C215.658 201.726 215.552 201.728 215.449 201.707C215.346 201.686 215.25 201.642 215.167 201.577C215.084 201.513 215.017 201.431 214.971 201.336C214.924 201.242 214.9 201.138 214.9 201.033V199.273L218.877 198.241V200.359C218.877 200.511 218.826 200.659 218.733 200.78C218.639 200.9 218.509 200.986 218.361 201.024Z" fill="#0D274D" stroke="#0B2750" stroke-width="2" stroke-linecap="round" stroke-linejoin="round"/>
<path id="Vector_165" d="M171 296.087H280.578C287.858 296.087 294.841 293.195 299.989 288.047C305.138 282.899 308.031 275.917 308.032 268.637V199.998C308.032 196.393 308.742 192.822 310.122 189.491C311.501 186.16 313.523 183.134 316.073 180.584C318.622 178.035 321.649 176.013 324.98 174.633C328.31 173.253 331.881 172.543 335.486 172.543H465.893" stroke="#1E4471" stroke-width="2" stroke-miterlimit="10"/>
						{#if pageLoaded}
							<path
								d="M200.942 285.342H310.188C317.447 285.342 324.408 282.555 329.541 277.594C334.674 272.633 337.558 265.905 337.559 258.889V192.74C337.559 189.266 338.267 185.825 339.642 182.615C341.018 179.405 343.034 176.488 345.575 174.031C348.117 171.574 351.134 169.626 354.455 168.296C357.776 166.966 361.335 166.282 364.93 166.282H494.942C502.201 166.282 509.163 163.494 514.296 158.532C519.429 153.571 522.313 146.841 522.313 139.824V73.6796C522.313 66.6628 525.196 59.9333 530.329 54.9716C535.462 50.0098 542.423 47.2222 549.682 47.2219"
								stroke="#1E4471"
								stroke-width="2"
								stroke-miterlimit="10"
								in:draw={{ delay: 500, duration: 10000, easing: quintOut }}
							/>
						{/if}
					</g>
					{#if pageLoaded}
						<circle
							cx="197.5"
							cy="282.5"
							r="33.5"
							fill="#6ABF4B"
							in:scale={{ delay: 500, duration: 2000, easing: quintOut, start: 0, opacity: 0 }}
						/>
					{/if}
					{#if pageLoaded}
						<path
							d="M185.057 282.5L196.793 294.236C197.183 294.626 197.817 294.626 198.207 294.236L216.643 275.8"
							stroke="white"
							stroke-width="7"
							stroke-linecap="round"
							in:scale={{ delay: 0, duration: 2000, easing: quintOut, start: 0, opacity: 0 }}
						/>
					{/if}
</g>
</g>
</g>
<defs>
<clipPath id="clip0_1060_850">
<rect width="250" height="120" fill="white" transform="translate(1605 114)"/>
</clipPath>
<clipPath id="clip1_1060_850">
<rect width="197" height="95" fill="white" transform="translate(1152 121)"/>
</clipPath>
<clipPath id="clip2_1060_850">
<rect width="360" height="371" fill="white"/>
</clipPath>
</defs>
</svg>
